<?xml version="1.0" encoding="UTF-8" standalone="no"?>
<!DOCTYPE svg PUBLIC "-//W3C//DTD SVG 1.1//EN" "http://www.w3.org/Graphics/SVG/1.1/DTD/svg11.dtd">
<svg width="100%" height="100%" viewBox="0 0 1297 729" version="1.1" xmlns="http://www.w3.org/2000/svg" xmlns:xlink="http://www.w3.org/1999/xlink" xml:space="preserve" xmlns:serif="http://www.serif.com/" style="fill-rule:evenodd;clip-rule:evenodd;stroke-linejoin:round;stroke-miterlimit:2;">
    <g id="ArtBoard2" transform="matrix(0.364941,0,0,0.146883,-1478.01,0)">
        <rect x="4050" y="0" width="3554" height="4960.63" style="fill:none;"/>
        <clipPath id="_clip1">
            <rect x="4050" y="0" width="3554" height="4960.63"/>
        </clipPath>
        <g clip-path="url(#_clip1)">
            <g transform="matrix(0.584288,0,0,1.45171,3977.87,-671.988)">
                <path d="M1895.88,1198.53C1885.22,1167.11 1891.74,1132.4 1913.09,1107C1934.44,1081.6 1967.51,1069.2 2000.3,1074.31C2000.27,1074.5 2000.27,1074.5 2000.27,1074.5C2094.11,1089.11 2161.72,1172.29 2156.84,1267.14C2153.5,1336.61 2144.18,1413.17 2123.95,1483.16C2086.37,1613.17 1968.63,1854.09 1968.63,1854.09C1968.63,1854.09 1992.55,1857.98 2025.88,1863.4C2025.88,1863.4 2153.38,1545.47 2187.28,1398.68C2196.25,1359.83 2203.8,1302.92 2209.9,1243.59C2213.28,1214.21 2230.18,1188.09 2255.61,1172.98C2281.04,1157.87 2312.07,1155.5 2339.49,1166.59C2339.5,1166.67 2339.54,1166.69 2339.57,1166.7C2405.34,1193.3 2438.79,1266.72 2415.69,1333.8C2384.7,1426.5 2350.56,1519.58 2323.03,1573.05C2253.94,1707.27 2151.33,1883.76 2151.33,1883.76C2177.6,1888.01 2200.37,1891.68 2214.14,1893.88C2233.34,1896.95 2251.78,1904.11 2264.51,1915.14C2264.51,1914.66 2264.5,1914.17 2264.5,1913.68C2264.5,1878.63 2274.51,1845.96 2294.51,1815.68C2314.52,1785.41 2340.81,1762.66 2373.39,1747.43C2410.93,1730.08 2502.73,1732.13 2541.64,1722.4C2569.14,1715.53 2634.88,1685.06 2634.88,1685.06C2603.68,1685.04 2559.34,1687.63 2519.39,1683.63C2481.69,1679.85 2450.78,1666.98 2427.23,1647.68C2403.68,1628.38 2391.91,1603.33 2391.91,1572.52C2391.91,1553.75 2399.52,1525.6 2414.75,1488.07C2414.75,1488.07 2449.49,1404.88 2477.7,1337.34C2487.06,1315.76 2505.75,1299.62 2528.46,1293.49C2551.17,1287.36 2575.44,1291.91 2594.39,1305.85C2594.32,1305.99 2594.34,1306.01 2594.37,1306.02C2611.53,1318.65 2622.5,1338 2624.51,1359.22C2626.53,1380.44 2619.4,1401.51 2604.92,1417.15C2586.7,1433.96 2569.76,1451.06 2562.48,1461.75C2549.59,1480.66 2548.45,1507.81 2551.73,1529.57C2556.46,1560.93 2584.38,1577.4 2616.66,1588.61C2638.95,1596.35 2690.97,1608.06 2713.59,1595.87C2741.47,1580.84 2740.39,1541.61 2744.99,1529.57C2744.99,1529.57 2744.99,1529.57 2744.99,1529.56C2746.88,1517.45 2756.02,1507.76 2767.99,1505.17C2779.97,1502.57 2792.3,1507.61 2799.03,1517.85C2812.78,1539.21 2825.52,1561.29 2837.04,1584.17C2855.84,1621.29 2865.02,1662.54 2863.75,1704.13C2863.49,1715.81 2863.18,1727.11 2862.53,1735.9C2860.08,1768.92 2848.11,1840.09 2848.11,1840.09C2847.47,1841.98 2847,1844.13 2846.66,1846.51C2826.85,1988.45 2704.3,2093.33 2561,2090.99C2561,2091 2561,2091 2561,2091C2501.57,2090.03 2432.53,2076.64 2353.8,2058.17C2341.08,2055.18 2329.35,2048.96 2319.75,2040.1C2319.74,2040.1 2319.74,2040.1 2319.74,2040.1C2299.85,2021.74 2285.33,2001 2276.18,1977.89C2272.25,1986.76 2266.18,1994.34 2257.96,2000.62C2248.27,2008.02 2236.2,2013.15 2221.76,2016C2207.11,2018.85 2192.03,2018.62 2177.47,2015.33C2131.25,2005.07 1983.33,1972.64 1876.09,1957.29C1852.68,1954.2 1832.88,1938.42 1824.66,1916.28C1822.73,1911.13 1821.5,1906.01 1821.5,1901.36C1821.5,1892.82 1824.62,1879.87 1830.84,1862.52C1830.84,1862.52 1830.84,1862.52 1830.84,1862.52C1765.72,1920.97 1681.56,1953.72 1594.07,1954.66C1565.67,1956.54 1537.42,1958.17 1514.4,1958.13C1491.56,1957.38 1469.39,1950.15 1450.49,1937.29C1443.19,1932.43 1436.41,1926.7 1430.22,1920.05C1377.83,1863.7 1392.54,1707.1 1414.17,1635.29L1394.29,1633.66L1356.98,1727.39C1314.13,1835.39 1268.34,1946.61 1221.6,1991.05C1221.6,1991.05 1221.6,1991.05 1221.6,1991.06C1188.78,2022.26 1144.73,2038.86 1099.48,2037.09C1082.91,2035.98 1066.09,2034.5 1049,2032C912.996,2012.14 761.804,1948.41 822,1715C822,1715 822,1715 822,1715C834.586,1666.19 863.615,1623.22 904.194,1593.32C924.255,1578.68 945.596,1565.38 965.517,1554.23C1025.71,1520.59 1108.75,1503.77 1214.63,1503.77L1298.55,1502.71L1351.31,1385.64C1359.56,1367.17 1364.18,1363.33 1364.18,1343.85C1364.18,1327.21 1357.75,1297.78 1342.87,1285.56C1328,1273.34 1268.23,1269.86 1255.01,1289.98C1243.07,1308.15 1240.04,1331.98 1258.11,1342.19C1282.05,1355.7 1296.36,1368.75 1296.36,1391.06C1296.36,1411.24 1288.75,1428.06 1273.52,1441.52C1258.29,1454.97 1239.35,1461.7 1216.68,1461.7C1171.71,1461.7 1125.41,1420.61 1095.69,1381.66C1095.69,1381.66 1095.68,1381.66 1095.68,1381.66C1067.67,1344.95 1074.17,1292.57 1110.32,1263.83C1211.56,1184.33 1334.99,1123.16 1475.95,1088.14C1504.89,1080.84 1535.49,1090.36 1555.17,1112.8C1574.86,1135.25 1580.32,1166.82 1569.3,1194.57C1569.45,1194.63 1569.45,1194.63 1569.44,1194.64L1444.22,1506.71L1473.72,1509.76C1494.48,1477.14 1519.42,1447.69 1552.52,1420.05C1618.63,1364.86 1691.87,1342.31 1772.23,1352.39C1830.71,1359.74 1875.78,1380.92 1907.44,1415.96C1939.09,1451 1951.78,1493.52 1945.5,1543.52C1937.94,1603.79 1907.78,1645.35 1855.03,1668.21C1825.72,1681.31 1784.06,1684.47 1730.04,1677.69L1596.1,1660.88C1576.9,1690.36 1520.46,1752.16 1561.19,1781.95C1583.25,1798.07 1614.38,1808.57 1656.5,1793.2C1694.29,1779.42 1695.03,1779.76 1764.51,1726.91C1813.4,1689.72 1857.64,1734.18 1860.84,1774.1C1861.23,1778.93 1861.55,1783.64 1861.72,1788.23C1861.72,1788.23 1961.14,1667.16 1980.19,1545.07C1988.8,1489.89 1941.22,1331.7 1895.88,1198.53ZM2716.04,1773.2C2716.04,1773.2 2624.46,1834.91 2514.68,1837.2C2443.62,1838.68 2392.51,1862.69 2392.51,1913.68C2392.51,1931.74 2398.09,1946.26 2409.24,1957.24C2420.4,1968.22 2493.37,1982.25 2528.13,1983.71C2568.95,1985.42 2647.29,1983.8 2684.91,1954.5C2719.28,1927.73 2715.96,1834.83 2716.04,1773.2ZM1251.28,1629.66C1176.92,1629.66 1119.91,1636.74 1080.25,1650.9C1043.42,1664.01 1014.38,1682.86 993.137,1707.47C971.891,1732.08 961.268,1759.26 961.268,1789.01C961.268,1816.62 970.297,1840 988.357,1859.12C1006.42,1878.24 1028.37,1887.8 1054.22,1887.8C1087.15,1887.8 1116.81,1873.37 1143.19,1844.51C1169.57,1815.65 1195.51,1769.35 1221,1705.61L1251.28,1629.66ZM1643.54,1543.03L1717.21,1552.28C1764.98,1558.27 1789.51,1550.7 1790.8,1529.55C1792.43,1505.71 1778.52,1491.95 1749.05,1488.25C1707.98,1483.1 1672.81,1501.36 1643.54,1543.03Z" style="fill:#0d28f2;"/>
            </g>
            <g transform="matrix(1.1453,0,0,2.84558,3531.29,-3698.02)">
                <g transform="matrix(0.509384,0.0281867,-0.0281867,0.509384,368.737,946.371)">
                    <path d="M1067.5,2350C1164.91,2350 1244,2438.78 1244,2523.5C1244,2608.22 1164.91,2649 1067.5,2649C970.087,2649 891,2608.22 891,2523.5C891,2438.78 970.087,2350 1067.5,2350Z" style="fill:#0d28f2;"/>
                </g>
                <g transform="matrix(0.750122,0,0,0.654757,-402.445,555.524)">
                    <path d="M2160,2350C2349.31,2350 2503,2445.48 2503,2530.2C2503,2614.91 2349.31,2657 2160,2657C1970.69,2657 1817,2614.91 1817,2530.2C1817,2445.48 1970.69,2350 2160,2350Z" style="fill:#0d28f2;"/>
                </g>
                <g transform="matrix(0.731607,0,0,1.03186,579.744,-754.273)">
                    <path d="M1530.47,2865C1653.8,2865 1753.94,2913.99 1753.94,2962.56C1753.94,3011.13 1653.8,3036.22 1530.47,3036.22C1407.13,3036.22 1307,3011.13 1307,2962.56C1307,2913.99 1407.13,2865 1530.47,2865Z" style="fill:#0d28f2;"/>
                </g>
                <g transform="matrix(0.602021,0,0,0.439128,-263.982,1014.62)">
                    <path d="M2620.5,2953C2720.12,2953 2801,3048.28 2801,3141C2801,3233.72 2720.12,3269 2620.5,3269C2520.88,3269 2440,3233.72 2440,3141C2440,3048.28 2520.88,2953 2620.5,2953Z" style="fill:#0d28f2;"/>
                </g>
                <g transform="matrix(0.510163,0,0,0.510163,869.707,991.343)">
                    <ellipse cx="1017.75" cy="3081" rx="49.75" ry="40" style="fill:#0d28f2;"/>
                </g>
                <g transform="matrix(0.424109,0,0,0.472663,716.886,1247.43)">
                    <ellipse cx="1017.75" cy="3081" rx="49.75" ry="40" style="fill:#0d28f2;"/>
                </g>
                <g transform="matrix(0.510163,0,0,0.510163,1029.43,1130.4)">
                    <ellipse cx="1017.75" cy="3081" rx="49.75" ry="40" style="fill:#0d28f2;"/>
                </g>
                <g transform="matrix(0.510163,0,0,0.510163,627.671,851.34)">
                    <path d="M2146.72,3061C2231.32,3061 2300,3116.56 2300,3185C2300,3253.44 2231.32,3269 2146.72,3269C2062.12,3269 1993.44,3253.44 1993.44,3185C1993.44,3116.56 2062.12,3061 2146.72,3061Z" style="fill:#0d28f2;"/>
                </g>
                <g transform="matrix(0.510163,0,0,0.510163,130.556,715.61)">
                    <path d="M1930,3389C1992.37,3389 2043,3435.3 2043,3480C2043,3524.7 1992.37,3541 1930,3541C1867.63,3541 1817,3524.7 1817,3480C1817,3435.3 1867.63,3389 1930,3389Z" style="fill:#0d28f2;"/>
                </g>
                <g transform="matrix(0.510163,0,0,0.510163,1120.01,888.749)">
                    <path d="M1069.5,3226C1125.52,3226 1171,3272.52 1171,3317.5C1171,3362.48 1125.52,3379 1069.5,3379C1013.48,3379 968,3362.48 968,3317.5C968,3272.52 1013.48,3226 1069.5,3226Z" style="fill:#0d28f2;"/>
                </g>
                <g transform="matrix(0.413985,0,0,0.510163,225.432,792.951)">
                    <ellipse cx="1512" cy="3266.75" rx="61" ry="40.75" style="fill:#0d28f2;"/>
                </g>
                <g transform="matrix(0.413985,0,0,0.510163,260.685,852.488)">
                    <ellipse cx="1512" cy="3266.75" rx="61" ry="40.75" style="fill:#0d28f2;"/>
                </g>
                <g transform="matrix(0.413985,0,0,0.510163,754.882,956.014)">
                    <ellipse cx="1512" cy="3266.75" rx="61" ry="40.75" style="fill:#0d28f2;"/>
                </g>
                <g transform="matrix(0.546753,0,0,0.550851,562.236,703.27)">
                    <ellipse cx="1512" cy="3266.75" rx="61" ry="40.75" style="fill:#0d28f2;"/>
                </g>
                <g transform="matrix(0.812866,0,0,0.563272,157.982,740.129)">
                    <ellipse cx="823.5" cy="2909" rx="49.5" ry="44" style="fill:#0d28f2;"/>
                </g>
                <g transform="matrix(0.510163,0,0,0.510163,706.304,1159.31)">
                    <ellipse cx="823.5" cy="2909" rx="49.5" ry="44" style="fill:#0d28f2;"/>
                </g>
                <g transform="matrix(0.673776,0,0,0.510163,560.316,1095.29)">
                    <ellipse cx="823.5" cy="2909" rx="49.5" ry="44" style="fill:#0d28f2;"/>
                </g>
                <g transform="matrix(0.673776,0,0,0.510163,1054.51,1166.29)">
                    <ellipse cx="823.5" cy="2909" rx="49.5" ry="44" style="fill:#0d28f2;"/>
                </g>
            </g>
            <g transform="matrix(1.1453,0,0,2.84558,3532.44,-3689.46)">
                <g transform="matrix(0.648081,0,0,0.565689,-182.037,778.506)">
                    <path d="M2160,2350C2329.59,2350 2463.58,2430.45 2498.13,2503.5C2509.05,2526.58 2486.55,2550.02 2471.9,2529.16C2461.41,2514.24 2452.48,2502.35 2419.9,2479.3C2358.64,2435.97 2269.96,2404.85 2160,2405.98C2111,2406.48 2041.44,2413.64 1986.64,2430.75C1950.7,2441.97 1917.31,2455.33 1901.94,2459.55C1883.22,2464.68 1864.89,2443.35 1885.22,2428.71C1947.79,2383.64 2047.62,2350 2160,2350Z" style="fill:#fff;"/>
                </g>
                <g transform="matrix(0.590644,0,0,0.428553,336.968,1129.02)">
                    <path d="M823.5,2865C850.82,2865 873,2884.72 873,2909C873,2910.95 865.923,2921.68 861.403,2912.88C849.73,2890.13 804.261,2869.13 793.719,2900.49C784.366,2928.31 829.27,2934.59 848.753,2932.03C856.096,2931.07 854.499,2943.34 852.848,2944.43C844.633,2949.81 834.482,2953 823.5,2953C796.18,2953 774,2933.28 774,2909C774,2884.72 796.18,2865 823.5,2865Z" style="fill:#fff;"/>
                </g>
                <g transform="matrix(0.328018,0,0,0.349008,577.451,1440.77)">
                    <path d="M823.5,2865C850.82,2865 873,2884.72 873,2909C873,2910.95 865.923,2921.68 861.403,2912.88C849.73,2890.13 804.261,2869.13 793.719,2900.49C784.366,2928.31 829.27,2934.59 848.753,2932.03C856.096,2931.07 854.499,2943.34 852.848,2944.43C844.633,2949.81 834.482,2953 823.5,2953C796.18,2953 774,2933.28 774,2909C774,2884.72 796.18,2865 823.5,2865Z" style="fill:#fff;"/>
                </g>
                <g transform="matrix(0.328018,0,0,0.349008,613.372,1501.13)">
                    <path d="M823.5,2865C850.82,2865 873,2884.72 873,2909C873,2910.95 865.923,2921.68 861.403,2912.88C849.73,2890.13 804.261,2869.13 793.719,2900.49C784.366,2928.31 829.27,2934.59 848.753,2932.03C856.096,2931.07 854.499,2943.34 852.848,2944.43C844.633,2949.81 834.482,2953 823.5,2953C796.18,2953 774,2933.28 774,2909C774,2884.72 796.18,2865 823.5,2865Z" style="fill:#fff;"/>
                </g>
                <g transform="matrix(0.491379,0,0,0.428908,632.988,1210.32)">
                    <path d="M2160,2350C2329.59,2350 2416.77,2439.77 2451.33,2512.83C2462.24,2535.9 2436.58,2557.21 2421.02,2533.83C2368.39,2454.74 2269.96,2404.85 2160,2405.98C2111,2406.48 2082.14,2413.64 2027.34,2430.75C1991.4,2441.97 1958.01,2455.33 1942.64,2459.55C1923.92,2464.68 1905.59,2443.35 1925.92,2428.71C1988.5,2383.64 2047.62,2350 2160,2350Z" style="fill:#fff;"/>
                </g>
                <g transform="matrix(0.314454,0,0,0.428908,625.237,1313.46)">
                    <path d="M2160,2350C2329.59,2350 2416.77,2439.77 2451.33,2512.83C2462.24,2535.9 2428.8,2551.71 2411.48,2529.16C2340.02,2436.09 2269.96,2404.85 2160,2405.98C2111,2406.48 2082.14,2413.64 2027.34,2430.75C1991.4,2441.97 1958.01,2455.33 1942.64,2459.55C1923.92,2464.68 1905.59,2443.35 1925.92,2428.71C1988.5,2383.64 2047.62,2350 2160,2350Z" style="fill:#fff;"/>
                </g>
                <g transform="matrix(0.172048,0,0,0.260561,738.705,1838.69)">
                    <path d="M2160,2350C2329.59,2350 2416.77,2439.77 2451.33,2512.83C2462.24,2535.9 2428.8,2551.71 2411.48,2529.16C2340.02,2436.09 2269.96,2404.85 2160,2405.98C2111,2406.48 2082.14,2413.64 2027.34,2430.75C1991.4,2441.97 1958.01,2455.33 1942.64,2459.55C1923.92,2464.68 1905.59,2443.35 1925.92,2428.71C1988.5,2383.64 2047.62,2350 2160,2350Z" style="fill:#fff;"/>
                </g>
                <g transform="matrix(0.245381,0,0,0.341365,1187.01,1622.68)">
                    <path d="M2160,2350C2329.59,2350 2416.77,2439.77 2451.33,2512.83C2462.24,2535.9 2428.8,2551.71 2411.48,2529.16C2340.02,2436.09 2269.96,2404.85 2160,2405.98C2111,2406.48 2082.14,2413.64 2027.34,2430.75C1991.4,2441.97 1958.01,2455.33 1942.64,2459.55C1923.92,2464.68 1905.59,2443.35 1925.92,2428.71C1988.5,2383.64 2047.62,2350 2160,2350Z" style="fill:#fff;"/>
                </g>
                <g transform="matrix(0.159903,0,0,0.257191,1317.09,1938.72)">
                    <path d="M2160,2350C2329.59,2350 2416.77,2439.77 2451.33,2512.83C2462.24,2535.9 2428.8,2551.71 2411.48,2529.16C2340.02,2436.09 2269.96,2404.85 2160,2405.98C2111,2406.48 2082.14,2413.64 2027.34,2430.75C1991.4,2441.97 1958.01,2455.33 1942.64,2459.55C1923.92,2464.68 1905.59,2443.35 1925.92,2428.71C1988.5,2383.64 2047.62,2350 2160,2350Z" style="fill:#fff;"/>
                </g>
                <g transform="matrix(0.26047,0,0,0.482788,272.128,1049.45)">
                    <path d="M2160,2350C2329.59,2350 2416.77,2439.77 2451.33,2512.83C2462.24,2535.9 2419.69,2545.48 2404.73,2522.17C2348,2433.76 2269.96,2404.85 2160,2405.98C2111,2406.48 2082.14,2413.64 2027.34,2430.75C1991.4,2441.97 1958.01,2455.33 1942.64,2459.55C1923.92,2464.68 1905.59,2443.35 1925.92,2428.71C1988.5,2383.64 2047.62,2350 2160,2350Z" style="fill:#fff;"/>
                </g>
                <g transform="matrix(1,0,0,1,90,0)">
                    <path d="M1007,2222C1028.55,2252.51 1055.18,2261.51 1083,2266C1115,2271.17 1132.03,2272.05 1180,2267C1201.76,2264.71 1194.77,2242.21 1178.34,2244.32C1110.88,2252.97 1053.46,2233.36 1030,2204C1020.78,2192.47 997.954,2209.19 1007,2222Z" style="fill:#fff;"/>
                </g>
                <g transform="matrix(0.570863,0,0,0.724482,676.215,787.847)">
                    <path d="M1007,2222C1028.55,2252.51 1055.18,2261.51 1083,2266C1115,2271.17 1132.03,2272.05 1180,2267C1201.76,2264.71 1194.77,2242.21 1178.34,2244.32C1110.88,2252.97 1053.46,2233.36 1030,2204C1020.78,2192.47 997.954,2209.19 1007,2222Z" style="fill:#fff;"/>
                </g>
                <g transform="matrix(0.428788,0,0,0.595771,356.696,958.283)">
                    <path d="M1007,2222C1028.55,2252.51 1055.18,2261.51 1083,2266C1115,2271.17 1132.03,2272.05 1180,2267C1201.76,2264.71 1194.77,2242.21 1178.34,2244.32C1110.88,2252.97 1053.46,2233.36 1030,2204C1020.78,2192.47 997.954,2209.19 1007,2222Z" style="fill:#fff;"/>
                </g>
                <g transform="matrix(0.285742,0,0,0.410669,794.563,1581.17)">
                    <path d="M1007,2222C1028.55,2252.51 1055.18,2261.51 1083,2266C1115,2271.17 1132.03,2272.05 1180,2267C1201.76,2264.71 1194.77,2242.21 1178.34,2244.32C1110.88,2252.97 1053.46,2233.36 1030,2204C1020.78,2192.47 997.954,2209.19 1007,2222Z" style="fill:#fff;"/>
                </g>
                <g transform="matrix(0.730773,0,0,0.841655,869.1,449.886)">
                    <path d="M1007,2222C1028.55,2252.51 1055.18,2261.51 1083,2266C1115,2271.17 1132.03,2272.05 1180,2267C1201.76,2264.71 1194.77,2242.21 1178.34,2244.32C1110.88,2252.97 1053.46,2233.36 1030,2204C1020.78,2192.47 997.954,2209.19 1007,2222Z" style="fill:#fff;"/>
                </g>
                <g transform="matrix(0.248656,0,0,0.400257,1391.97,1694.86)">
                    <path d="M1007,2222C1028.55,2252.51 1055.18,2261.51 1083,2266C1115,2271.17 1132.03,2272.05 1180,2267C1201.76,2264.71 1194.77,2242.21 1178.34,2244.32C1110.88,2252.97 1053.46,2233.36 1030,2204C1020.78,2192.47 997.954,2209.19 1007,2222Z" style="fill:#fff;"/>
                </g>
                <g transform="matrix(0.365212,0,0,0.556882,1306.35,1244.9)">
                    <path d="M1007,2222C1028.55,2252.51 1055.18,2261.51 1083,2266C1115,2271.17 1132.03,2272.05 1180,2267C1201.76,2264.71 1194.77,2242.21 1178.34,2244.32C1110.88,2252.97 1053.46,2233.36 1030,2204C1020.78,2192.47 997.954,2209.19 1007,2222Z" style="fill:#fff;"/>
                </g>
                <g transform="matrix(0.479533,0,0,0.394462,717.323,1428.81)">
                    <path d="M823.5,2865C850.82,2865 873,2884.72 873,2909C873,2910.95 865.923,2921.68 861.403,2912.88C849.73,2890.13 804.261,2869.13 793.719,2900.49C784.366,2928.31 829.27,2934.59 848.753,2932.03C856.096,2931.07 854.499,2943.34 852.848,2944.43C844.633,2949.81 834.482,2953 823.5,2953C796.18,2953 774,2933.28 774,2909C774,2884.72 796.18,2865 823.5,2865Z" style="fill:#fff;"/>
                </g>
                <g transform="matrix(0.479533,0,0,0.394462,990.029,1351.85)">
                    <path d="M823.5,2865C850.82,2865 873,2884.72 873,2909C873,2910.95 865.923,2921.68 861.403,2912.88C849.73,2890.13 804.261,2869.13 793.719,2900.49C784.366,2928.31 829.27,2934.59 848.753,2932.03C856.096,2931.07 854.499,2943.34 852.848,2944.43C844.633,2949.81 834.482,2953 823.5,2953C796.18,2953 774,2933.28 774,2909C774,2884.72 796.18,2865 823.5,2865Z" style="fill:#fff;"/>
                </g>
                <g transform="matrix(0.479533,0,0,0.394462,1210.47,1499.85)">
                    <path d="M823.5,2865C850.82,2865 873,2884.72 873,2909C873,2910.95 865.923,2921.68 861.403,2912.88C849.73,2890.13 804.261,2869.13 793.719,2900.49C784.366,2928.31 829.27,2934.59 848.753,2932.03C856.096,2931.07 854.499,2943.34 852.848,2944.43C844.633,2949.81 834.482,2953 823.5,2953C796.18,2953 774,2933.28 774,2909C774,2884.72 796.18,2865 823.5,2865Z" style="fill:#fff;"/>
                </g>
                <g transform="matrix(0.34822,0,0,0.371735,837.458,1559.59)">
                    <path d="M823.5,2865C850.82,2865 873,2884.72 873,2909C873,2910.95 865.923,2921.68 861.403,2912.88C849.73,2890.13 804.261,2869.13 793.719,2900.49C784.366,2928.31 829.27,2934.59 848.753,2932.03C856.096,2931.07 854.499,2943.34 852.848,2944.43C844.633,2949.81 834.482,2953 823.5,2953C796.18,2953 774,2933.28 774,2909C774,2884.72 796.18,2865 823.5,2865Z" style="fill:#fff;"/>
                </g>
                <g transform="matrix(0.338119,0,0,0.371735,1107.3,1479.2)">
                    <path d="M823.5,2865C850.82,2865 873,2884.72 873,2909C873,2910.95 865.923,2921.68 861.403,2912.88C849.73,2890.13 804.261,2869.13 793.719,2900.49C784.366,2928.31 829.27,2934.59 848.753,2932.03C856.096,2931.07 854.499,2943.34 852.848,2944.43C844.633,2949.81 834.482,2953 823.5,2953C796.18,2953 774,2933.28 774,2909C774,2884.72 796.18,2865 823.5,2865Z" style="fill:#fff;"/>
                </g>
                <g transform="matrix(0.338119,0,0,0.371735,1099.32,1538.01)">
                    <path d="M823.5,2865C850.82,2865 873,2884.72 873,2909C873,2910.95 865.923,2921.68 861.403,2912.88C849.73,2890.13 804.261,2869.13 793.719,2900.49C784.366,2928.31 829.27,2934.59 848.753,2932.03C856.096,2931.07 854.499,2943.34 852.848,2944.43C844.633,2949.81 834.482,2953 823.5,2953C796.18,2953 774,2933.28 774,2909C774,2884.72 796.18,2865 823.5,2865Z" style="fill:#fff;"/>
                </g>
                <g transform="matrix(0.338119,0,0,0.371735,1266.21,1617.82)">
                    <path d="M823.5,2865C850.82,2865 873,2884.72 873,2909C873,2910.95 865.923,2921.68 861.403,2912.88C849.73,2890.13 804.261,2869.13 793.719,2900.49C784.366,2928.31 829.27,2934.59 848.753,2932.03C856.096,2931.07 854.499,2943.34 852.848,2944.43C844.633,2949.81 834.482,2953 823.5,2953C796.18,2953 774,2933.28 774,2909C774,2884.72 796.18,2865 823.5,2865Z" style="fill:#fff;"/>
                </g>
                <g transform="matrix(0.243835,0,0,0.29219,943.597,1850.85)">
                    <path d="M823.5,2865C850.82,2865 873,2884.72 873,2909C873,2910.95 865.923,2921.68 861.403,2912.88C849.73,2890.13 804.261,2869.13 793.719,2900.49C784.366,2928.31 829.27,2934.59 848.753,2932.03C856.096,2931.07 854.499,2943.34 852.848,2944.43C844.633,2949.81 834.482,2953 823.5,2953C796.18,2953 774,2933.28 774,2909C774,2884.72 796.18,2865 823.5,2865Z" style="fill:#fff;"/>
                </g>
            </g>
            <g transform="matrix(3.45067,0,0,8.57346,-1016.6,-13616.3)">
                <g transform="matrix(125,0,0,125,2014.52,1787.6)">
                    <path d="M0.594,-0.325C0.594,-0.267 0.586,-0.218 0.571,-0.177C0.556,-0.135 0.534,-0.102 0.506,-0.076C0.478,-0.05 0.443,-0.031 0.403,-0.018C0.362,-0.006 0.314,-0 0.258,-0L0.107,-0C0.096,-0 0.087,-0.003 0.08,-0.01C0.073,-0.016 0.069,-0.026 0.069,-0.041L0.069,-0.591C0.069,-0.606 0.073,-0.616 0.08,-0.622C0.087,-0.629 0.096,-0.632 0.107,-0.632L0.269,-0.632C0.325,-0.632 0.373,-0.625 0.412,-0.612C0.452,-0.599 0.485,-0.579 0.511,-0.553C0.538,-0.528 0.559,-0.496 0.573,-0.458C0.587,-0.419 0.594,-0.375 0.594,-0.325ZM0.461,-0.321C0.461,-0.351 0.457,-0.379 0.45,-0.404C0.443,-0.43 0.432,-0.452 0.417,-0.471C0.401,-0.49 0.381,-0.505 0.357,-0.515C0.333,-0.526 0.301,-0.531 0.262,-0.531L0.197,-0.531L0.197,-0.102L0.264,-0.102C0.299,-0.102 0.328,-0.106 0.353,-0.115C0.377,-0.124 0.397,-0.138 0.413,-0.156C0.429,-0.175 0.441,-0.198 0.449,-0.225C0.457,-0.252 0.461,-0.284 0.461,-0.321Z" style="fill:#0d28f2;fill-rule:nonzero;"/>
                </g>
                <g transform="matrix(125,0,0,125,2093.2,1787.6)">
                    <path d="M0.198,-0.018C0.198,-0.014 0.197,-0.011 0.195,-0.009C0.192,-0.006 0.189,-0.004 0.184,-0.002C0.179,-0.001 0.173,0 0.165,0.001C0.156,0.002 0.146,0.003 0.133,0.003C0.121,0.003 0.111,0.002 0.102,0.001C0.094,0 0.087,-0.001 0.083,-0.002C0.078,-0.004 0.074,-0.006 0.072,-0.009C0.07,-0.011 0.069,-0.014 0.069,-0.018L0.069,-0.614C0.069,-0.618 0.07,-0.62 0.072,-0.623C0.074,-0.626 0.078,-0.628 0.083,-0.629C0.088,-0.631 0.094,-0.632 0.103,-0.633C0.111,-0.634 0.121,-0.635 0.133,-0.635C0.146,-0.635 0.156,-0.634 0.165,-0.633C0.173,-0.632 0.179,-0.631 0.184,-0.629C0.189,-0.628 0.192,-0.626 0.195,-0.623C0.197,-0.62 0.198,-0.618 0.198,-0.614L0.198,-0.018Z" style="fill:#0d28f2;fill-rule:nonzero;"/>
                </g>
                <g transform="matrix(125,0,0,125,2126.41,1787.6)">
                    <path d="M0.383,-0.022C0.382,-0.017 0.38,-0.012 0.377,-0.009C0.374,-0.006 0.37,-0.003 0.364,-0.001C0.358,0.001 0.35,0.002 0.34,0.002C0.33,0.003 0.317,0.003 0.301,0.003C0.288,0.003 0.277,0.003 0.267,0.003C0.258,0.003 0.25,0.002 0.244,0.001C0.237,0.001 0.232,-0 0.228,-0.001C0.224,-0.003 0.22,-0.004 0.218,-0.006C0.215,-0.008 0.213,-0.011 0.211,-0.013C0.21,-0.016 0.208,-0.02 0.207,-0.024L0.019,-0.584C0.015,-0.596 0.013,-0.605 0.012,-0.612C0.011,-0.619 0.013,-0.624 0.017,-0.627C0.021,-0.631 0.028,-0.633 0.038,-0.634C0.047,-0.634 0.061,-0.635 0.079,-0.635C0.094,-0.635 0.105,-0.634 0.114,-0.634C0.122,-0.633 0.129,-0.632 0.133,-0.63C0.138,-0.629 0.141,-0.626 0.143,-0.623C0.145,-0.62 0.146,-0.616 0.148,-0.611L0.302,-0.124L0.302,-0.124L0.453,-0.608C0.454,-0.614 0.456,-0.618 0.458,-0.622C0.46,-0.625 0.463,-0.628 0.468,-0.63C0.473,-0.632 0.479,-0.633 0.488,-0.634C0.497,-0.634 0.509,-0.635 0.524,-0.635C0.539,-0.635 0.551,-0.634 0.559,-0.633C0.568,-0.632 0.573,-0.63 0.576,-0.626C0.58,-0.622 0.58,-0.617 0.579,-0.61C0.578,-0.604 0.576,-0.594 0.572,-0.583L0.383,-0.022Z" style="fill:#0d28f2;fill-rule:nonzero;"/>
                </g>
                <g transform="matrix(125,0,0,125,2200.21,1787.6)">
                    <path d="M0.443,-0.05C0.443,-0.041 0.443,-0.033 0.442,-0.027C0.441,-0.02 0.44,-0.015 0.438,-0.011C0.437,-0.007 0.435,-0.004 0.432,-0.003C0.43,-0.001 0.427,-0 0.424,-0L0.107,-0C0.096,-0 0.087,-0.003 0.08,-0.01C0.073,-0.016 0.069,-0.026 0.069,-0.041L0.069,-0.591C0.069,-0.606 0.073,-0.616 0.08,-0.622C0.087,-0.629 0.096,-0.632 0.107,-0.632L0.422,-0.632C0.425,-0.632 0.428,-0.631 0.43,-0.629C0.432,-0.628 0.434,-0.625 0.436,-0.621C0.438,-0.617 0.439,-0.612 0.44,-0.605C0.441,-0.599 0.441,-0.591 0.441,-0.581C0.441,-0.572 0.441,-0.564 0.44,-0.558C0.439,-0.552 0.438,-0.546 0.436,-0.542C0.434,-0.539 0.432,-0.536 0.43,-0.534C0.428,-0.532 0.425,-0.531 0.422,-0.531L0.197,-0.531L0.197,-0.377L0.388,-0.377C0.391,-0.377 0.393,-0.376 0.396,-0.374C0.398,-0.372 0.4,-0.37 0.402,-0.366C0.403,-0.362 0.405,-0.357 0.406,-0.351C0.406,-0.344 0.407,-0.337 0.407,-0.328C0.407,-0.318 0.406,-0.31 0.406,-0.304C0.405,-0.298 0.403,-0.293 0.402,-0.289C0.4,-0.286 0.398,-0.283 0.396,-0.281C0.393,-0.28 0.391,-0.279 0.388,-0.279L0.197,-0.279L0.197,-0.101L0.424,-0.101C0.427,-0.101 0.43,-0.1 0.432,-0.098C0.435,-0.096 0.437,-0.093 0.438,-0.089C0.44,-0.085 0.441,-0.08 0.442,-0.074C0.443,-0.068 0.443,-0.06 0.443,-0.05Z" style="fill:#0d28f2;fill-rule:nonzero;"/>
                </g>
                <g transform="matrix(125,0,0,125,2014.52,1914.99)">
                    <path d="M0.506,-0.096C0.506,-0.088 0.506,-0.081 0.505,-0.075C0.505,-0.069 0.504,-0.064 0.503,-0.06C0.502,-0.056 0.501,-0.053 0.499,-0.05C0.497,-0.047 0.495,-0.044 0.491,-0.04C0.488,-0.036 0.481,-0.031 0.47,-0.025C0.46,-0.02 0.448,-0.014 0.433,-0.009C0.418,-0.003 0.401,0.001 0.382,0.005C0.363,0.008 0.342,0.01 0.32,0.01C0.277,0.01 0.238,0.004 0.203,-0.01C0.168,-0.023 0.139,-0.043 0.114,-0.07C0.09,-0.096 0.071,-0.129 0.058,-0.169C0.045,-0.209 0.039,-0.255 0.039,-0.308C0.039,-0.361 0.046,-0.409 0.06,-0.451C0.074,-0.492 0.094,-0.527 0.12,-0.556C0.146,-0.584 0.177,-0.605 0.213,-0.62C0.249,-0.635 0.288,-0.642 0.332,-0.642C0.349,-0.642 0.366,-0.641 0.382,-0.638C0.399,-0.635 0.414,-0.631 0.427,-0.626C0.441,-0.622 0.454,-0.616 0.465,-0.61C0.476,-0.604 0.484,-0.598 0.488,-0.594C0.492,-0.59 0.495,-0.586 0.497,-0.583C0.499,-0.58 0.5,-0.576 0.501,-0.572C0.502,-0.567 0.503,-0.562 0.503,-0.556C0.504,-0.549 0.504,-0.542 0.504,-0.533C0.504,-0.523 0.504,-0.515 0.503,-0.508C0.502,-0.501 0.501,-0.495 0.5,-0.491C0.498,-0.487 0.496,-0.484 0.494,-0.482C0.491,-0.48 0.489,-0.479 0.486,-0.479C0.481,-0.479 0.475,-0.482 0.467,-0.488C0.46,-0.493 0.45,-0.5 0.438,-0.507C0.426,-0.514 0.412,-0.52 0.396,-0.526C0.379,-0.531 0.36,-0.534 0.337,-0.534C0.312,-0.534 0.289,-0.529 0.27,-0.519C0.25,-0.509 0.233,-0.494 0.219,-0.475C0.206,-0.456 0.195,-0.433 0.188,-0.406C0.181,-0.379 0.177,-0.348 0.177,-0.314C0.177,-0.277 0.181,-0.245 0.189,-0.218C0.196,-0.191 0.207,-0.168 0.221,-0.151C0.236,-0.133 0.253,-0.12 0.273,-0.112C0.293,-0.103 0.315,-0.099 0.34,-0.099C0.363,-0.099 0.383,-0.101 0.399,-0.107C0.416,-0.112 0.43,-0.118 0.442,-0.125C0.454,-0.131 0.464,-0.137 0.471,-0.142C0.479,-0.147 0.485,-0.15 0.489,-0.15C0.493,-0.15 0.495,-0.149 0.497,-0.148C0.499,-0.147 0.501,-0.144 0.502,-0.14C0.503,-0.136 0.504,-0.131 0.505,-0.124C0.506,-0.117 0.506,-0.107 0.506,-0.096Z" style="fill:#0d28f2;fill-rule:nonzero;"/>
                </g>
                <g transform="matrix(125,0,0,125,2083.07,1914.99)">
                    <path d="M0.443,-0.05C0.443,-0.041 0.443,-0.033 0.442,-0.027C0.441,-0.02 0.44,-0.015 0.438,-0.011C0.437,-0.007 0.435,-0.004 0.432,-0.003C0.43,-0.001 0.427,-0 0.424,-0L0.107,-0C0.096,-0 0.087,-0.003 0.08,-0.01C0.073,-0.016 0.069,-0.026 0.069,-0.041L0.069,-0.591C0.069,-0.606 0.073,-0.616 0.08,-0.622C0.087,-0.629 0.096,-0.632 0.107,-0.632L0.422,-0.632C0.425,-0.632 0.428,-0.631 0.43,-0.629C0.432,-0.628 0.434,-0.625 0.436,-0.621C0.438,-0.617 0.439,-0.612 0.44,-0.605C0.441,-0.599 0.441,-0.591 0.441,-0.581C0.441,-0.572 0.441,-0.564 0.44,-0.558C0.439,-0.552 0.438,-0.546 0.436,-0.542C0.434,-0.539 0.432,-0.536 0.43,-0.534C0.428,-0.532 0.425,-0.531 0.422,-0.531L0.197,-0.531L0.197,-0.377L0.388,-0.377C0.391,-0.377 0.393,-0.376 0.396,-0.374C0.398,-0.372 0.4,-0.37 0.402,-0.366C0.403,-0.362 0.405,-0.357 0.406,-0.351C0.406,-0.344 0.407,-0.337 0.407,-0.328C0.407,-0.318 0.406,-0.31 0.406,-0.304C0.405,-0.298 0.403,-0.293 0.402,-0.289C0.4,-0.286 0.398,-0.283 0.396,-0.281C0.393,-0.28 0.391,-0.279 0.388,-0.279L0.197,-0.279L0.197,-0.101L0.424,-0.101C0.427,-0.101 0.43,-0.1 0.432,-0.098C0.435,-0.096 0.437,-0.093 0.438,-0.089C0.44,-0.085 0.441,-0.08 0.442,-0.074C0.443,-0.068 0.443,-0.06 0.443,-0.05Z" style="fill:#0d28f2;fill-rule:nonzero;"/>
                </g>
                <g transform="matrix(125,0,0,125,2143.92,1914.99)">
                    <path d="M0.59,-0.045C0.59,-0.037 0.589,-0.031 0.586,-0.025C0.583,-0.019 0.58,-0.014 0.575,-0.01C0.571,-0.006 0.566,-0.003 0.56,-0.002C0.554,0 0.548,0.001 0.542,0.001L0.487,0.001C0.475,0.001 0.466,-0 0.457,-0.002C0.449,-0.005 0.441,-0.009 0.434,-0.015C0.427,-0.021 0.421,-0.029 0.414,-0.039C0.408,-0.05 0.4,-0.063 0.392,-0.079L0.235,-0.375C0.226,-0.392 0.216,-0.411 0.207,-0.431C0.198,-0.452 0.189,-0.472 0.182,-0.491L0.181,-0.491C0.182,-0.467 0.183,-0.444 0.184,-0.421C0.184,-0.397 0.185,-0.373 0.185,-0.349L0.185,-0.018C0.185,-0.015 0.184,-0.012 0.182,-0.009C0.18,-0.007 0.177,-0.004 0.173,-0.003C0.168,-0.001 0.162,0 0.155,0.001C0.147,0.002 0.138,0.003 0.126,0.003C0.115,0.003 0.105,0.002 0.098,0.001C0.09,0 0.084,-0.001 0.08,-0.003C0.076,-0.004 0.073,-0.007 0.071,-0.009C0.07,-0.012 0.069,-0.015 0.069,-0.018L0.069,-0.586C0.069,-0.601 0.073,-0.613 0.082,-0.62C0.091,-0.628 0.102,-0.632 0.115,-0.632L0.184,-0.632C0.196,-0.632 0.207,-0.631 0.215,-0.629C0.224,-0.627 0.231,-0.623 0.238,-0.618C0.245,-0.613 0.251,-0.607 0.257,-0.598C0.263,-0.589 0.269,-0.579 0.275,-0.566L0.398,-0.335C0.405,-0.321 0.412,-0.307 0.419,-0.294C0.426,-0.28 0.433,-0.267 0.439,-0.253C0.446,-0.24 0.452,-0.226 0.458,-0.213C0.465,-0.2 0.471,-0.187 0.477,-0.174L0.477,-0.174C0.476,-0.197 0.475,-0.221 0.475,-0.246C0.474,-0.27 0.474,-0.294 0.474,-0.316L0.474,-0.613C0.474,-0.616 0.475,-0.619 0.477,-0.622C0.479,-0.624 0.482,-0.626 0.487,-0.628C0.491,-0.63 0.497,-0.632 0.505,-0.633C0.512,-0.633 0.522,-0.634 0.534,-0.634C0.545,-0.634 0.554,-0.633 0.562,-0.633C0.569,-0.632 0.575,-0.63 0.579,-0.628C0.583,-0.626 0.586,-0.624 0.587,-0.622C0.589,-0.619 0.59,-0.616 0.59,-0.613L0.59,-0.045Z" style="fill:#0d28f2;fill-rule:nonzero;"/>
                </g>
                <g transform="matrix(125,0,0,125,2226.14,1914.99)">
                    <path d="M0.489,-0.579C0.489,-0.57 0.489,-0.562 0.488,-0.555C0.487,-0.548 0.486,-0.543 0.484,-0.539C0.483,-0.535 0.481,-0.532 0.478,-0.53C0.476,-0.528 0.473,-0.527 0.47,-0.527L0.312,-0.527L0.312,-0.018C0.312,-0.014 0.311,-0.011 0.309,-0.009C0.307,-0.006 0.303,-0.004 0.298,-0.002C0.293,-0.001 0.287,0 0.279,0.001C0.27,0.002 0.26,0.003 0.248,0.003C0.235,0.003 0.225,0.002 0.217,0.001C0.208,0 0.202,-0.001 0.197,-0.002C0.192,-0.004 0.188,-0.006 0.186,-0.009C0.184,-0.011 0.183,-0.014 0.183,-0.018L0.183,-0.527L0.025,-0.527C0.022,-0.527 0.019,-0.528 0.017,-0.53C0.014,-0.532 0.012,-0.535 0.011,-0.539C0.009,-0.543 0.008,-0.548 0.007,-0.555C0.006,-0.562 0.006,-0.57 0.006,-0.579C0.006,-0.589 0.006,-0.597 0.007,-0.604C0.008,-0.611 0.009,-0.616 0.011,-0.62C0.012,-0.624 0.014,-0.627 0.017,-0.629C0.019,-0.631 0.022,-0.632 0.025,-0.632L0.47,-0.632C0.473,-0.632 0.476,-0.631 0.478,-0.629C0.481,-0.627 0.483,-0.624 0.484,-0.62C0.486,-0.616 0.487,-0.611 0.488,-0.604C0.489,-0.597 0.489,-0.589 0.489,-0.579Z" style="fill:#0d28f2;fill-rule:nonzero;"/>
                </g>
                <g transform="matrix(125,0,0,125,2287.92,1914.99)">
                    <path d="M0.443,-0.05C0.443,-0.041 0.443,-0.033 0.442,-0.027C0.441,-0.02 0.44,-0.015 0.438,-0.011C0.437,-0.007 0.435,-0.004 0.432,-0.003C0.43,-0.001 0.427,-0 0.424,-0L0.107,-0C0.096,-0 0.087,-0.003 0.08,-0.01C0.073,-0.016 0.069,-0.026 0.069,-0.041L0.069,-0.591C0.069,-0.606 0.073,-0.616 0.08,-0.622C0.087,-0.629 0.096,-0.632 0.107,-0.632L0.422,-0.632C0.425,-0.632 0.428,-0.631 0.43,-0.629C0.432,-0.628 0.434,-0.625 0.436,-0.621C0.438,-0.617 0.439,-0.612 0.44,-0.605C0.441,-0.599 0.441,-0.591 0.441,-0.581C0.441,-0.572 0.441,-0.564 0.44,-0.558C0.439,-0.552 0.438,-0.546 0.436,-0.542C0.434,-0.539 0.432,-0.536 0.43,-0.534C0.428,-0.532 0.425,-0.531 0.422,-0.531L0.197,-0.531L0.197,-0.377L0.388,-0.377C0.391,-0.377 0.393,-0.376 0.396,-0.374C0.398,-0.372 0.4,-0.37 0.402,-0.366C0.403,-0.362 0.405,-0.357 0.406,-0.351C0.406,-0.344 0.407,-0.337 0.407,-0.328C0.407,-0.318 0.406,-0.31 0.406,-0.304C0.405,-0.298 0.403,-0.293 0.402,-0.289C0.4,-0.286 0.398,-0.283 0.396,-0.281C0.393,-0.28 0.391,-0.279 0.388,-0.279L0.197,-0.279L0.197,-0.101L0.424,-0.101C0.427,-0.101 0.43,-0.1 0.432,-0.098C0.435,-0.096 0.437,-0.093 0.438,-0.089C0.44,-0.085 0.441,-0.08 0.442,-0.074C0.443,-0.068 0.443,-0.06 0.443,-0.05Z" style="fill:#0d28f2;fill-rule:nonzero;"/>
                </g>
                <g transform="matrix(125,0,0,125,2348.77,1914.99)">
                    <path d="M0.538,-0.017C0.538,-0.013 0.537,-0.01 0.536,-0.008C0.534,-0.005 0.531,-0.003 0.526,-0.001C0.521,0 0.514,0.001 0.505,0.002C0.495,0.003 0.483,0.003 0.466,0.003C0.453,0.003 0.442,0.003 0.434,0.002C0.425,0.001 0.419,0 0.414,-0.002C0.41,-0.003 0.406,-0.006 0.404,-0.009C0.402,-0.011 0.401,-0.015 0.399,-0.019L0.343,-0.16C0.336,-0.176 0.329,-0.19 0.323,-0.202C0.316,-0.215 0.309,-0.225 0.301,-0.233C0.293,-0.241 0.284,-0.248 0.273,-0.252C0.263,-0.256 0.251,-0.258 0.237,-0.258L0.197,-0.258L0.197,-0.018C0.197,-0.014 0.196,-0.011 0.194,-0.009C0.192,-0.006 0.188,-0.004 0.184,-0.002C0.179,-0.001 0.172,0 0.164,0.001C0.156,0.002 0.146,0.003 0.133,0.003C0.12,0.003 0.11,0.002 0.102,0.001C0.094,0 0.087,-0.001 0.082,-0.002C0.077,-0.004 0.074,-0.006 0.072,-0.009C0.07,-0.011 0.069,-0.014 0.069,-0.018L0.069,-0.591C0.069,-0.606 0.073,-0.616 0.08,-0.622C0.087,-0.629 0.096,-0.632 0.107,-0.632L0.271,-0.632C0.287,-0.632 0.301,-0.632 0.312,-0.631C0.322,-0.63 0.332,-0.629 0.341,-0.628C0.366,-0.625 0.389,-0.619 0.409,-0.61C0.43,-0.601 0.447,-0.59 0.461,-0.575C0.475,-0.561 0.486,-0.545 0.494,-0.525C0.501,-0.506 0.505,-0.484 0.505,-0.458C0.505,-0.437 0.502,-0.418 0.497,-0.401C0.491,-0.383 0.484,-0.368 0.473,-0.354C0.463,-0.34 0.45,-0.328 0.435,-0.318C0.419,-0.308 0.402,-0.3 0.382,-0.294C0.392,-0.289 0.401,-0.284 0.409,-0.277C0.417,-0.271 0.425,-0.263 0.432,-0.254C0.44,-0.244 0.447,-0.234 0.453,-0.222C0.46,-0.21 0.466,-0.197 0.472,-0.182L0.525,-0.057C0.53,-0.045 0.534,-0.036 0.535,-0.03C0.537,-0.024 0.538,-0.02 0.538,-0.017ZM0.372,-0.445C0.372,-0.466 0.367,-0.484 0.358,-0.498C0.348,-0.512 0.333,-0.522 0.312,-0.528C0.305,-0.53 0.298,-0.531 0.289,-0.532C0.281,-0.533 0.27,-0.534 0.255,-0.534L0.197,-0.534L0.197,-0.354L0.263,-0.354C0.281,-0.354 0.297,-0.357 0.311,-0.361C0.324,-0.365 0.336,-0.372 0.345,-0.38C0.354,-0.388 0.361,-0.397 0.365,-0.408C0.37,-0.419 0.372,-0.432 0.372,-0.445Z" style="fill:#0d28f2;fill-rule:nonzero;"/>
                </g>
                <g transform="matrix(125,0,0,125,2014.52,2042.37)">
                    <path d="M0.443,-0.189C0.443,-0.156 0.437,-0.127 0.425,-0.102C0.412,-0.077 0.396,-0.056 0.375,-0.039C0.353,-0.023 0.329,-0.01 0.3,-0.001C0.272,0.007 0.242,0.011 0.209,0.011C0.188,0.011 0.167,0.009 0.149,0.006C0.13,0.002 0.113,-0.002 0.099,-0.007C0.085,-0.012 0.073,-0.017 0.063,-0.023C0.054,-0.028 0.047,-0.033 0.042,-0.038C0.038,-0.042 0.035,-0.048 0.033,-0.056C0.032,-0.064 0.031,-0.075 0.031,-0.09C0.031,-0.1 0.031,-0.109 0.032,-0.116C0.032,-0.123 0.033,-0.128 0.035,-0.132C0.036,-0.137 0.038,-0.14 0.041,-0.141C0.043,-0.143 0.046,-0.144 0.049,-0.144C0.054,-0.144 0.06,-0.141 0.069,-0.136C0.077,-0.131 0.088,-0.125 0.101,-0.118C0.114,-0.112 0.129,-0.106 0.147,-0.1C0.165,-0.095 0.186,-0.092 0.21,-0.092C0.226,-0.092 0.24,-0.094 0.252,-0.098C0.264,-0.102 0.275,-0.107 0.283,-0.114C0.292,-0.121 0.299,-0.129 0.303,-0.139C0.308,-0.149 0.31,-0.16 0.31,-0.173C0.31,-0.187 0.306,-0.199 0.298,-0.21C0.291,-0.22 0.28,-0.229 0.268,-0.237C0.255,-0.245 0.241,-0.253 0.225,-0.26C0.209,-0.267 0.193,-0.274 0.176,-0.282C0.159,-0.29 0.142,-0.298 0.126,-0.308C0.111,-0.318 0.096,-0.33 0.084,-0.344C0.071,-0.358 0.061,-0.374 0.053,-0.393C0.045,-0.412 0.042,-0.435 0.042,-0.461C0.042,-0.491 0.047,-0.518 0.058,-0.541C0.07,-0.564 0.085,-0.583 0.104,-0.598C0.123,-0.613 0.145,-0.624 0.171,-0.632C0.197,-0.639 0.224,-0.643 0.253,-0.643C0.268,-0.643 0.283,-0.642 0.298,-0.64C0.313,-0.637 0.327,-0.634 0.34,-0.63C0.353,-0.626 0.365,-0.622 0.375,-0.617C0.385,-0.612 0.392,-0.608 0.395,-0.605C0.398,-0.602 0.4,-0.599 0.402,-0.597C0.403,-0.594 0.404,-0.591 0.405,-0.588C0.405,-0.584 0.406,-0.579 0.406,-0.573C0.407,-0.568 0.407,-0.561 0.407,-0.552C0.407,-0.543 0.406,-0.535 0.406,-0.528C0.406,-0.522 0.405,-0.516 0.404,-0.512C0.402,-0.508 0.401,-0.505 0.399,-0.503C0.397,-0.501 0.394,-0.5 0.39,-0.5C0.387,-0.5 0.381,-0.502 0.373,-0.507C0.365,-0.511 0.356,-0.516 0.344,-0.522C0.333,-0.527 0.32,-0.532 0.305,-0.536C0.29,-0.541 0.273,-0.543 0.255,-0.543C0.241,-0.543 0.229,-0.541 0.219,-0.538C0.208,-0.534 0.2,-0.53 0.193,-0.524C0.186,-0.518 0.18,-0.51 0.177,-0.502C0.174,-0.493 0.172,-0.485 0.172,-0.475C0.172,-0.461 0.176,-0.449 0.183,-0.439C0.191,-0.428 0.201,-0.419 0.214,-0.411C0.227,-0.403 0.242,-0.396 0.258,-0.389C0.274,-0.382 0.291,-0.375 0.308,-0.367C0.325,-0.359 0.341,-0.35 0.357,-0.34C0.374,-0.33 0.388,-0.318 0.401,-0.304C0.414,-0.291 0.424,-0.274 0.432,-0.256C0.439,-0.237 0.443,-0.215 0.443,-0.189Z" style="fill:#0d28f2;fill-rule:nonzero;"/>
                </g>
                <g transform="matrix(125,0,0,125,2074.74,2042.37)">
                    <path d="M0.443,-0.05C0.443,-0.041 0.443,-0.033 0.442,-0.027C0.441,-0.02 0.44,-0.015 0.438,-0.011C0.437,-0.007 0.435,-0.004 0.432,-0.003C0.43,-0.001 0.427,-0 0.424,-0L0.107,-0C0.096,-0 0.087,-0.003 0.08,-0.01C0.073,-0.016 0.069,-0.026 0.069,-0.041L0.069,-0.591C0.069,-0.606 0.073,-0.616 0.08,-0.622C0.087,-0.629 0.096,-0.632 0.107,-0.632L0.422,-0.632C0.425,-0.632 0.428,-0.631 0.43,-0.629C0.432,-0.628 0.434,-0.625 0.436,-0.621C0.438,-0.617 0.439,-0.612 0.44,-0.605C0.441,-0.599 0.441,-0.591 0.441,-0.581C0.441,-0.572 0.441,-0.564 0.44,-0.558C0.439,-0.552 0.438,-0.546 0.436,-0.542C0.434,-0.539 0.432,-0.536 0.43,-0.534C0.428,-0.532 0.425,-0.531 0.422,-0.531L0.197,-0.531L0.197,-0.377L0.388,-0.377C0.391,-0.377 0.393,-0.376 0.396,-0.374C0.398,-0.372 0.4,-0.37 0.402,-0.366C0.403,-0.362 0.405,-0.357 0.406,-0.351C0.406,-0.344 0.407,-0.337 0.407,-0.328C0.407,-0.318 0.406,-0.31 0.406,-0.304C0.405,-0.298 0.403,-0.293 0.402,-0.289C0.4,-0.286 0.398,-0.283 0.396,-0.281C0.393,-0.28 0.391,-0.279 0.388,-0.279L0.197,-0.279L0.197,-0.101L0.424,-0.101C0.427,-0.101 0.43,-0.1 0.432,-0.098C0.435,-0.096 0.437,-0.093 0.438,-0.089C0.44,-0.085 0.441,-0.08 0.442,-0.074C0.443,-0.068 0.443,-0.06 0.443,-0.05Z" style="fill:#0d28f2;fill-rule:nonzero;"/>
                </g>
                <g transform="matrix(125,0,0,125,2135.59,2042.37)">
                    <path d="M0.416,-0.054C0.416,-0.044 0.416,-0.036 0.415,-0.029C0.414,-0.022 0.413,-0.017 0.411,-0.012C0.41,-0.008 0.407,-0.005 0.405,-0.003C0.403,-0.001 0.4,-0 0.396,-0L0.107,-0C0.096,-0 0.087,-0.003 0.08,-0.01C0.073,-0.016 0.069,-0.026 0.069,-0.041L0.069,-0.614C0.069,-0.618 0.07,-0.62 0.072,-0.623C0.074,-0.626 0.078,-0.628 0.083,-0.629C0.087,-0.631 0.094,-0.632 0.102,-0.633C0.111,-0.634 0.121,-0.635 0.133,-0.635C0.146,-0.635 0.156,-0.634 0.165,-0.633C0.173,-0.632 0.179,-0.631 0.184,-0.629C0.189,-0.628 0.192,-0.626 0.195,-0.623C0.197,-0.62 0.198,-0.618 0.198,-0.614L0.198,-0.106L0.396,-0.106C0.4,-0.106 0.403,-0.105 0.405,-0.103C0.407,-0.101 0.41,-0.099 0.411,-0.094C0.413,-0.09 0.414,-0.085 0.415,-0.078C0.416,-0.072 0.416,-0.063 0.416,-0.054Z" style="fill:#0d28f2;fill-rule:nonzero;"/>
                </g>
                <g transform="matrix(125,0,0,125,2186.21,2042.37)">
                    <path d="M0.506,-0.096C0.506,-0.088 0.506,-0.081 0.505,-0.075C0.505,-0.069 0.504,-0.064 0.503,-0.06C0.502,-0.056 0.501,-0.053 0.499,-0.05C0.497,-0.047 0.495,-0.044 0.491,-0.04C0.488,-0.036 0.481,-0.031 0.47,-0.025C0.46,-0.02 0.448,-0.014 0.433,-0.009C0.418,-0.003 0.401,0.001 0.382,0.005C0.363,0.008 0.342,0.01 0.32,0.01C0.277,0.01 0.238,0.004 0.203,-0.01C0.168,-0.023 0.139,-0.043 0.114,-0.07C0.09,-0.096 0.071,-0.129 0.058,-0.169C0.045,-0.209 0.039,-0.255 0.039,-0.308C0.039,-0.361 0.046,-0.409 0.06,-0.451C0.074,-0.492 0.094,-0.527 0.12,-0.556C0.146,-0.584 0.177,-0.605 0.213,-0.62C0.249,-0.635 0.288,-0.642 0.332,-0.642C0.349,-0.642 0.366,-0.641 0.382,-0.638C0.399,-0.635 0.414,-0.631 0.427,-0.626C0.441,-0.622 0.454,-0.616 0.465,-0.61C0.476,-0.604 0.484,-0.598 0.488,-0.594C0.492,-0.59 0.495,-0.586 0.497,-0.583C0.499,-0.58 0.5,-0.576 0.501,-0.572C0.502,-0.567 0.503,-0.562 0.503,-0.556C0.504,-0.549 0.504,-0.542 0.504,-0.533C0.504,-0.523 0.504,-0.515 0.503,-0.508C0.502,-0.501 0.501,-0.495 0.5,-0.491C0.498,-0.487 0.496,-0.484 0.494,-0.482C0.491,-0.48 0.489,-0.479 0.486,-0.479C0.481,-0.479 0.475,-0.482 0.467,-0.488C0.46,-0.493 0.45,-0.5 0.438,-0.507C0.426,-0.514 0.412,-0.52 0.396,-0.526C0.379,-0.531 0.36,-0.534 0.337,-0.534C0.312,-0.534 0.289,-0.529 0.27,-0.519C0.25,-0.509 0.233,-0.494 0.219,-0.475C0.206,-0.456 0.195,-0.433 0.188,-0.406C0.181,-0.379 0.177,-0.348 0.177,-0.314C0.177,-0.277 0.181,-0.245 0.189,-0.218C0.196,-0.191 0.207,-0.168 0.221,-0.151C0.236,-0.133 0.253,-0.12 0.273,-0.112C0.293,-0.103 0.315,-0.099 0.34,-0.099C0.363,-0.099 0.383,-0.101 0.399,-0.107C0.416,-0.112 0.43,-0.118 0.442,-0.125C0.454,-0.131 0.464,-0.137 0.471,-0.142C0.479,-0.147 0.485,-0.15 0.489,-0.15C0.493,-0.15 0.495,-0.149 0.497,-0.148C0.499,-0.147 0.501,-0.144 0.502,-0.14C0.503,-0.136 0.504,-0.131 0.505,-0.124C0.506,-0.117 0.506,-0.107 0.506,-0.096Z" style="fill:#0d28f2;fill-rule:nonzero;"/>
                </g>
                <g transform="matrix(125,0,0,125,2254.75,2042.37)">
                    <path d="M0.443,-0.05C0.443,-0.041 0.443,-0.033 0.442,-0.027C0.441,-0.02 0.44,-0.015 0.438,-0.011C0.437,-0.007 0.435,-0.004 0.432,-0.003C0.43,-0.001 0.427,-0 0.424,-0L0.107,-0C0.096,-0 0.087,-0.003 0.08,-0.01C0.073,-0.016 0.069,-0.026 0.069,-0.041L0.069,-0.591C0.069,-0.606 0.073,-0.616 0.08,-0.622C0.087,-0.629 0.096,-0.632 0.107,-0.632L0.422,-0.632C0.425,-0.632 0.428,-0.631 0.43,-0.629C0.432,-0.628 0.434,-0.625 0.436,-0.621C0.438,-0.617 0.439,-0.612 0.44,-0.605C0.441,-0.599 0.441,-0.591 0.441,-0.581C0.441,-0.572 0.441,-0.564 0.44,-0.558C0.439,-0.552 0.438,-0.546 0.436,-0.542C0.434,-0.539 0.432,-0.536 0.43,-0.534C0.428,-0.532 0.425,-0.531 0.422,-0.531L0.197,-0.531L0.197,-0.377L0.388,-0.377C0.391,-0.377 0.393,-0.376 0.396,-0.374C0.398,-0.372 0.4,-0.37 0.402,-0.366C0.403,-0.362 0.405,-0.357 0.406,-0.351C0.406,-0.344 0.407,-0.337 0.407,-0.328C0.407,-0.318 0.406,-0.31 0.406,-0.304C0.405,-0.298 0.403,-0.293 0.402,-0.289C0.4,-0.286 0.398,-0.283 0.396,-0.281C0.393,-0.28 0.391,-0.279 0.388,-0.279L0.197,-0.279L0.197,-0.101L0.424,-0.101C0.427,-0.101 0.43,-0.1 0.432,-0.098C0.435,-0.096 0.437,-0.093 0.438,-0.089C0.44,-0.085 0.441,-0.08 0.442,-0.074C0.443,-0.068 0.443,-0.06 0.443,-0.05Z" style="fill:#0d28f2;fill-rule:nonzero;"/>
                </g>
            </g>
            <g transform="matrix(3.45067,0,0,8.57346,-2305.7,-14654)">
                <path d="M2088.74,1746.95C2088.74,1754.19 2087.8,1760.38 2085.9,1765.53C2084.01,1770.68 2081.29,1774.88 2077.75,1778.14C2074.21,1781.39 2069.91,1783.78 2064.85,1785.31C2059.78,1786.83 2053.75,1787.6 2046.75,1787.6L2027.89,1787.6C2026.55,1787.6 2025.42,1787.2 2024.5,1786.41C2023.59,1785.61 2023.13,1784.32 2023.13,1782.53L2023.13,1713.68C2023.13,1711.89 2023.59,1710.6 2024.5,1709.81C2025.42,1709.01 2026.55,1708.62 2027.89,1708.62L2048.15,1708.62C2055.19,1708.62 2061.16,1709.44 2066.07,1711.09C2070.97,1712.74 2075.1,1715.18 2078.46,1718.41C2081.81,1721.65 2084.37,1725.65 2086.12,1730.41C2087.87,1735.17 2088.74,1740.68 2088.74,1746.95ZM2072.14,1747.5C2072.14,1743.75 2071.7,1740.27 2070.83,1737.06C2069.95,1733.85 2068.55,1731.06 2066.62,1728.7C2064.68,1726.34 2062.2,1724.5 2059.17,1723.17C2056.14,1721.85 2052.16,1721.19 2047.24,1721.19L2039.12,1721.19L2039.12,1774.9L2047.48,1774.9C2051.88,1774.9 2055.58,1774.33 2058.59,1773.19C2061.6,1772.05 2064.11,1770.33 2066.13,1768.04C2068.14,1765.74 2069.65,1762.88 2070.64,1759.46C2071.64,1756.04 2072.14,1752.05 2072.14,1747.5Z" style="fill:none;fill-rule:nonzero;"/>
                <path d="M2117.92,1785.4C2117.92,1785.81 2117.79,1786.17 2117.52,1786.5C2117.26,1786.82 2116.82,1787.09 2116.21,1787.29C2115.6,1787.5 2114.79,1787.66 2113.77,1787.78C2112.75,1787.9 2111.45,1787.96 2109.86,1787.96C2108.32,1787.96 2107.03,1787.9 2105.99,1787.78C2104.95,1787.66 2104.13,1787.5 2103.52,1787.29C2102.91,1787.09 2102.47,1786.82 2102.2,1786.5C2101.94,1786.17 2101.81,1785.81 2101.81,1785.4L2101.81,1710.81C2101.81,1710.41 2101.94,1710.04 2102.2,1709.72C2102.47,1709.39 2102.92,1709.13 2103.55,1708.92C2104.18,1708.72 2105,1708.56 2106.02,1708.43C2107.04,1708.31 2108.32,1708.25 2109.86,1708.25C2111.45,1708.25 2112.75,1708.31 2113.77,1708.43C2114.79,1708.56 2115.6,1708.72 2116.21,1708.92C2116.82,1709.13 2117.26,1709.39 2117.52,1709.72C2117.79,1710.04 2117.92,1710.41 2117.92,1710.81L2117.92,1785.4Z" style="fill:none;fill-rule:nonzero;"/>
                <path d="M2174.32,1784.79C2174.12,1785.48 2173.85,1786.04 2173.53,1786.47C2173.2,1786.89 2172.67,1787.22 2171.94,1787.44C2171.21,1787.67 2170.21,1787.81 2168.95,1787.87C2167.69,1787.93 2166.04,1787.96 2164.01,1787.96C2162.38,1787.96 2160.99,1787.95 2159.83,1787.93C2158.67,1787.91 2157.68,1787.86 2156.87,1787.78C2156.05,1787.7 2155.39,1787.58 2154.88,1787.41C2154.37,1787.25 2153.95,1787.05 2153.6,1786.8C2153.25,1786.56 2152.99,1786.26 2152.81,1785.92C2152.62,1785.57 2152.45,1785.13 2152.29,1784.61L2128.79,1714.6C2128.3,1713.13 2128.01,1711.97 2127.9,1711.12C2127.8,1710.27 2128.01,1709.62 2128.51,1709.2C2129.02,1708.77 2129.89,1708.51 2131.11,1708.4C2132.33,1708.3 2134.04,1708.25 2136.24,1708.25C2138.11,1708.25 2139.57,1708.29 2140.63,1708.37C2141.69,1708.45 2142.5,1708.6 2143.07,1708.8C2143.64,1709 2144.04,1709.31 2144.26,1709.72C2144.49,1710.12 2144.7,1710.63 2144.9,1711.24L2164.13,1772.15L2164.19,1772.15L2183.05,1711.55C2183.21,1710.86 2183.42,1710.3 2183.66,1709.87C2183.9,1709.44 2184.32,1709.11 2184.91,1708.86C2185.5,1708.62 2186.35,1708.45 2187.44,1708.37C2188.54,1708.29 2190.05,1708.25 2191.96,1708.25C2193.83,1708.25 2195.29,1708.31 2196.33,1708.43C2197.36,1708.56 2198.08,1708.85 2198.46,1709.32C2198.85,1709.79 2198.97,1710.45 2198.83,1711.3C2198.68,1712.16 2198.37,1713.3 2197.88,1714.72L2174.32,1784.79Z" style="fill:none;fill-rule:nonzero;"/>
                <path d="M2255.62,1781.31C2255.62,1782.49 2255.58,1783.48 2255.47,1784.27C2255.37,1785.06 2255.22,1785.7 2255.01,1786.19C2254.81,1786.68 2254.56,1787.04 2254.25,1787.26C2253.95,1787.49 2253.61,1787.6 2253.24,1787.6L2213.57,1787.6C2212.23,1787.6 2211.1,1787.2 2210.18,1786.41C2209.27,1785.61 2208.81,1784.32 2208.81,1782.53L2208.81,1713.68C2208.81,1711.89 2209.27,1710.6 2210.18,1709.81C2211.1,1709.01 2212.23,1708.62 2213.57,1708.62L2253,1708.62C2253.37,1708.62 2253.69,1708.72 2253.98,1708.92C2254.26,1709.13 2254.51,1709.48 2254.71,1709.99C2254.91,1710.5 2255.07,1711.15 2255.17,1711.94C2255.27,1712.74 2255.32,1713.74 2255.32,1714.97C2255.32,1716.1 2255.27,1717.07 2255.17,1717.86C2255.07,1718.66 2254.91,1719.3 2254.71,1719.79C2254.51,1720.28 2254.26,1720.63 2253.98,1720.86C2253.69,1721.08 2253.37,1721.19 2253,1721.19L2224.8,1721.19L2224.8,1740.48L2248.67,1740.48C2249.03,1740.48 2249.37,1740.59 2249.67,1740.81C2249.98,1741.04 2250.23,1741.38 2250.44,1741.85C2250.64,1742.32 2250.79,1742.95 2250.89,1743.74C2251,1744.54 2251.05,1745.5 2251.05,1746.64C2251.05,1747.82 2251,1748.8 2250.89,1749.57C2250.79,1750.35 2250.64,1750.97 2250.44,1751.43C2250.23,1751.9 2249.98,1752.24 2249.67,1752.44C2249.37,1752.64 2249.03,1752.75 2248.67,1752.75L2224.8,1752.75L2224.8,1775.02L2253.24,1775.02C2253.61,1775.02 2253.95,1775.13 2254.25,1775.36C2254.56,1775.58 2254.81,1775.94 2255.01,1776.43C2255.22,1776.92 2255.37,1777.56 2255.47,1778.35C2255.58,1779.14 2255.62,1780.13 2255.62,1781.31Z" style="fill:none;fill-rule:nonzero;"/>
            </g>
            <g transform="matrix(3.45067,0,0,8.57346,-2305.7,-10372.9)">
                <path d="M2088.74,1746.95C2088.74,1754.19 2087.8,1760.38 2085.9,1765.53C2084.01,1770.68 2081.29,1774.88 2077.75,1778.14C2074.21,1781.39 2069.91,1783.78 2064.85,1785.31C2059.78,1786.83 2053.75,1787.6 2046.75,1787.6L2027.89,1787.6C2026.55,1787.6 2025.42,1787.2 2024.5,1786.41C2023.59,1785.61 2023.13,1784.32 2023.13,1782.53L2023.13,1713.68C2023.13,1711.89 2023.59,1710.6 2024.5,1709.81C2025.42,1709.01 2026.55,1708.62 2027.89,1708.62L2048.15,1708.62C2055.19,1708.62 2061.16,1709.44 2066.07,1711.09C2070.97,1712.74 2075.1,1715.18 2078.46,1718.41C2081.81,1721.65 2084.37,1725.65 2086.12,1730.41C2087.87,1735.17 2088.74,1740.68 2088.74,1746.95ZM2072.14,1747.5C2072.14,1743.75 2071.7,1740.27 2070.83,1737.06C2069.95,1733.85 2068.55,1731.06 2066.62,1728.7C2064.68,1726.34 2062.2,1724.5 2059.17,1723.17C2056.14,1721.85 2052.16,1721.19 2047.24,1721.19L2039.12,1721.19L2039.12,1774.9L2047.48,1774.9C2051.88,1774.9 2055.58,1774.33 2058.59,1773.19C2061.6,1772.05 2064.11,1770.33 2066.13,1768.04C2068.14,1765.74 2069.65,1762.88 2070.64,1759.46C2071.64,1756.04 2072.14,1752.05 2072.14,1747.5Z" style="fill:none;fill-rule:nonzero;"/>
                <path d="M2117.92,1785.4C2117.92,1785.81 2117.79,1786.17 2117.52,1786.5C2117.26,1786.82 2116.82,1787.09 2116.21,1787.29C2115.6,1787.5 2114.79,1787.66 2113.77,1787.78C2112.75,1787.9 2111.45,1787.96 2109.86,1787.96C2108.32,1787.96 2107.03,1787.9 2105.99,1787.78C2104.95,1787.66 2104.13,1787.5 2103.52,1787.29C2102.91,1787.09 2102.47,1786.82 2102.2,1786.5C2101.94,1786.17 2101.81,1785.81 2101.81,1785.4L2101.81,1710.81C2101.81,1710.41 2101.94,1710.04 2102.2,1709.72C2102.47,1709.39 2102.92,1709.13 2103.55,1708.92C2104.18,1708.72 2105,1708.56 2106.02,1708.43C2107.04,1708.31 2108.32,1708.25 2109.86,1708.25C2111.45,1708.25 2112.75,1708.31 2113.77,1708.43C2114.79,1708.56 2115.6,1708.72 2116.21,1708.92C2116.82,1709.13 2117.26,1709.39 2117.52,1709.72C2117.79,1710.04 2117.92,1710.41 2117.92,1710.81L2117.92,1785.4Z" style="fill:none;fill-rule:nonzero;"/>
                <path d="M2174.32,1784.79C2174.12,1785.48 2173.85,1786.04 2173.53,1786.47C2173.2,1786.89 2172.67,1787.22 2171.94,1787.44C2171.21,1787.67 2170.21,1787.81 2168.95,1787.87C2167.69,1787.93 2166.04,1787.96 2164.01,1787.96C2162.38,1787.96 2160.99,1787.95 2159.83,1787.93C2158.67,1787.91 2157.68,1787.86 2156.87,1787.78C2156.05,1787.7 2155.39,1787.58 2154.88,1787.41C2154.37,1787.25 2153.95,1787.05 2153.6,1786.8C2153.25,1786.56 2152.99,1786.26 2152.81,1785.92C2152.62,1785.57 2152.45,1785.13 2152.29,1784.61L2128.79,1714.6C2128.3,1713.13 2128.01,1711.97 2127.9,1711.12C2127.8,1710.27 2128.01,1709.62 2128.51,1709.2C2129.02,1708.77 2129.89,1708.51 2131.11,1708.4C2132.33,1708.3 2134.04,1708.25 2136.24,1708.25C2138.11,1708.25 2139.57,1708.29 2140.63,1708.37C2141.69,1708.45 2142.5,1708.6 2143.07,1708.8C2143.64,1709 2144.04,1709.31 2144.26,1709.72C2144.49,1710.12 2144.7,1710.63 2144.9,1711.24L2164.13,1772.15L2164.19,1772.15L2183.05,1711.55C2183.21,1710.86 2183.42,1710.3 2183.66,1709.87C2183.9,1709.44 2184.32,1709.11 2184.91,1708.86C2185.5,1708.62 2186.35,1708.45 2187.44,1708.37C2188.54,1708.29 2190.05,1708.25 2191.96,1708.25C2193.83,1708.25 2195.29,1708.31 2196.33,1708.43C2197.36,1708.56 2198.08,1708.85 2198.46,1709.32C2198.85,1709.79 2198.97,1710.45 2198.83,1711.3C2198.68,1712.16 2198.37,1713.3 2197.88,1714.72L2174.32,1784.79Z" style="fill:none;fill-rule:nonzero;"/>
                <path d="M2255.62,1781.31C2255.62,1782.49 2255.58,1783.48 2255.47,1784.27C2255.37,1785.06 2255.22,1785.7 2255.01,1786.19C2254.81,1786.68 2254.56,1787.04 2254.25,1787.26C2253.95,1787.49 2253.61,1787.6 2253.24,1787.6L2213.57,1787.6C2212.23,1787.6 2211.1,1787.2 2210.18,1786.41C2209.27,1785.61 2208.81,1784.32 2208.81,1782.53L2208.81,1713.68C2208.81,1711.89 2209.27,1710.6 2210.18,1709.81C2211.1,1709.01 2212.23,1708.62 2213.57,1708.62L2253,1708.62C2253.37,1708.62 2253.69,1708.72 2253.98,1708.92C2254.26,1709.13 2254.51,1709.48 2254.71,1709.99C2254.91,1710.5 2255.07,1711.15 2255.17,1711.94C2255.27,1712.74 2255.32,1713.74 2255.32,1714.97C2255.32,1716.1 2255.27,1717.07 2255.17,1717.86C2255.07,1718.66 2254.91,1719.3 2254.71,1719.79C2254.51,1720.28 2254.26,1720.63 2253.98,1720.86C2253.69,1721.08 2253.37,1721.19 2253,1721.19L2224.8,1721.19L2224.8,1740.48L2248.67,1740.48C2249.03,1740.48 2249.37,1740.59 2249.67,1740.81C2249.98,1741.04 2250.23,1741.38 2250.44,1741.85C2250.64,1742.32 2250.79,1742.95 2250.89,1743.74C2251,1744.54 2251.05,1745.5 2251.05,1746.64C2251.05,1747.82 2251,1748.8 2250.89,1749.57C2250.79,1750.35 2250.64,1750.97 2250.44,1751.43C2250.23,1751.9 2249.98,1752.24 2249.67,1752.44C2249.37,1752.64 2249.03,1752.75 2248.67,1752.75L2224.8,1752.75L2224.8,1775.02L2253.24,1775.02C2253.61,1775.02 2253.95,1775.13 2254.25,1775.36C2254.56,1775.58 2254.81,1775.94 2255.01,1776.43C2255.22,1776.92 2255.37,1777.56 2255.47,1778.35C2255.58,1779.14 2255.62,1780.13 2255.62,1781.31Z" style="fill:none;fill-rule:nonzero;"/>
            </g>
            <g transform="matrix(2.11293e-16,8.57346,-3.45067,5.24973e-16,10225.3,-15993.6)">
                <path d="M2088.74,1746.95C2088.74,1754.19 2087.8,1760.38 2085.9,1765.53C2084.01,1770.68 2081.29,1774.88 2077.75,1778.14C2074.21,1781.39 2069.91,1783.78 2064.85,1785.31C2059.78,1786.83 2053.75,1787.6 2046.75,1787.6L2027.89,1787.6C2026.55,1787.6 2025.42,1787.2 2024.5,1786.41C2023.59,1785.61 2023.13,1784.32 2023.13,1782.53L2023.13,1713.68C2023.13,1711.89 2023.59,1710.6 2024.5,1709.81C2025.42,1709.01 2026.55,1708.62 2027.89,1708.62L2048.15,1708.62C2055.19,1708.62 2061.16,1709.44 2066.07,1711.09C2070.97,1712.74 2075.1,1715.18 2078.46,1718.41C2081.81,1721.65 2084.37,1725.65 2086.12,1730.41C2087.87,1735.17 2088.74,1740.68 2088.74,1746.95ZM2072.14,1747.5C2072.14,1743.75 2071.7,1740.27 2070.83,1737.06C2069.95,1733.85 2068.55,1731.06 2066.62,1728.7C2064.68,1726.34 2062.2,1724.5 2059.17,1723.17C2056.14,1721.85 2052.16,1721.19 2047.24,1721.19L2039.12,1721.19L2039.12,1774.9L2047.48,1774.9C2051.88,1774.9 2055.58,1774.33 2058.59,1773.19C2061.6,1772.05 2064.11,1770.33 2066.13,1768.04C2068.14,1765.74 2069.65,1762.88 2070.64,1759.46C2071.64,1756.04 2072.14,1752.05 2072.14,1747.5Z" style="fill:none;fill-rule:nonzero;"/>
                <path d="M2117.92,1785.4C2117.92,1785.81 2117.79,1786.17 2117.52,1786.5C2117.26,1786.82 2116.82,1787.09 2116.21,1787.29C2115.6,1787.5 2114.79,1787.66 2113.77,1787.78C2112.75,1787.9 2111.45,1787.96 2109.86,1787.96C2108.32,1787.96 2107.03,1787.9 2105.99,1787.78C2104.95,1787.66 2104.13,1787.5 2103.52,1787.29C2102.91,1787.09 2102.47,1786.82 2102.2,1786.5C2101.94,1786.17 2101.81,1785.81 2101.81,1785.4L2101.81,1710.81C2101.81,1710.41 2101.94,1710.04 2102.2,1709.72C2102.47,1709.39 2102.92,1709.13 2103.55,1708.92C2104.18,1708.72 2105,1708.56 2106.02,1708.43C2107.04,1708.31 2108.32,1708.25 2109.86,1708.25C2111.45,1708.25 2112.75,1708.31 2113.77,1708.43C2114.79,1708.56 2115.6,1708.72 2116.21,1708.92C2116.82,1709.13 2117.26,1709.39 2117.52,1709.72C2117.79,1710.04 2117.92,1710.41 2117.92,1710.81L2117.92,1785.4Z" style="fill:none;fill-rule:nonzero;"/>
                <path d="M2174.32,1784.79C2174.12,1785.48 2173.85,1786.04 2173.53,1786.47C2173.2,1786.89 2172.67,1787.22 2171.94,1787.44C2171.21,1787.67 2170.21,1787.81 2168.95,1787.87C2167.69,1787.93 2166.04,1787.96 2164.01,1787.96C2162.38,1787.96 2160.99,1787.95 2159.83,1787.93C2158.67,1787.91 2157.68,1787.86 2156.87,1787.78C2156.05,1787.7 2155.39,1787.58 2154.88,1787.41C2154.37,1787.25 2153.95,1787.05 2153.6,1786.8C2153.25,1786.56 2152.99,1786.26 2152.81,1785.92C2152.62,1785.57 2152.45,1785.13 2152.29,1784.61L2128.79,1714.6C2128.3,1713.13 2128.01,1711.97 2127.9,1711.12C2127.8,1710.27 2128.01,1709.62 2128.51,1709.2C2129.02,1708.77 2129.89,1708.51 2131.11,1708.4C2132.33,1708.3 2134.04,1708.25 2136.24,1708.25C2138.11,1708.25 2139.57,1708.29 2140.63,1708.37C2141.69,1708.45 2142.5,1708.6 2143.07,1708.8C2143.64,1709 2144.04,1709.31 2144.26,1709.72C2144.49,1710.12 2144.7,1710.63 2144.9,1711.24L2164.13,1772.15L2164.19,1772.15L2183.05,1711.55C2183.21,1710.86 2183.42,1710.3 2183.66,1709.87C2183.9,1709.44 2184.32,1709.11 2184.91,1708.86C2185.5,1708.62 2186.35,1708.45 2187.44,1708.37C2188.54,1708.29 2190.05,1708.25 2191.96,1708.25C2193.83,1708.25 2195.29,1708.31 2196.33,1708.43C2197.36,1708.56 2198.08,1708.85 2198.46,1709.32C2198.85,1709.79 2198.97,1710.45 2198.83,1711.3C2198.68,1712.16 2198.37,1713.3 2197.88,1714.72L2174.32,1784.79Z" style="fill:none;fill-rule:nonzero;"/>
                <path d="M2255.62,1781.31C2255.62,1782.49 2255.58,1783.48 2255.47,1784.27C2255.37,1785.06 2255.22,1785.7 2255.01,1786.19C2254.81,1786.68 2254.56,1787.04 2254.25,1787.26C2253.95,1787.49 2253.61,1787.6 2253.24,1787.6L2213.57,1787.6C2212.23,1787.6 2211.1,1787.2 2210.18,1786.41C2209.27,1785.61 2208.81,1784.32 2208.81,1782.53L2208.81,1713.68C2208.81,1711.89 2209.27,1710.6 2210.18,1709.81C2211.1,1709.01 2212.23,1708.62 2213.57,1708.62L2253,1708.62C2253.37,1708.62 2253.69,1708.72 2253.98,1708.92C2254.26,1709.13 2254.51,1709.48 2254.71,1709.99C2254.91,1710.5 2255.07,1711.15 2255.17,1711.94C2255.27,1712.74 2255.32,1713.74 2255.32,1714.97C2255.32,1716.1 2255.27,1717.07 2255.17,1717.86C2255.07,1718.66 2254.91,1719.3 2254.71,1719.79C2254.51,1720.28 2254.26,1720.63 2253.98,1720.86C2253.69,1721.08 2253.37,1721.19 2253,1721.19L2224.8,1721.19L2224.8,1740.48L2248.67,1740.48C2249.03,1740.48 2249.37,1740.59 2249.67,1740.81C2249.98,1741.04 2250.23,1741.38 2250.44,1741.85C2250.64,1742.32 2250.79,1742.95 2250.89,1743.74C2251,1744.54 2251.05,1745.5 2251.05,1746.64C2251.05,1747.82 2251,1748.8 2250.89,1749.57C2250.79,1750.35 2250.64,1750.97 2250.44,1751.43C2250.23,1751.9 2249.98,1752.24 2249.67,1752.44C2249.37,1752.64 2249.03,1752.75 2248.67,1752.75L2224.8,1752.75L2224.8,1775.02L2253.24,1775.02C2253.61,1775.02 2253.95,1775.13 2254.25,1775.36C2254.56,1775.58 2254.81,1775.94 2255.01,1776.43C2255.22,1776.92 2255.37,1777.56 2255.47,1778.35C2255.58,1779.14 2255.62,1780.13 2255.62,1781.31Z" style="fill:none;fill-rule:nonzero;"/>
            </g>
            <g transform="matrix(2.11293e-16,8.57346,-3.45067,5.24973e-16,13492.7,-16125)">
                <path d="M2088.74,1746.95C2088.74,1754.19 2087.8,1760.38 2085.9,1765.53C2084.01,1770.68 2081.29,1774.88 2077.75,1778.14C2074.21,1781.39 2069.91,1783.78 2064.85,1785.31C2059.78,1786.83 2053.75,1787.6 2046.75,1787.6L2027.89,1787.6C2026.55,1787.6 2025.42,1787.2 2024.5,1786.41C2023.59,1785.61 2023.13,1784.32 2023.13,1782.53L2023.13,1713.68C2023.13,1711.89 2023.59,1710.6 2024.5,1709.81C2025.42,1709.01 2026.55,1708.62 2027.89,1708.62L2048.15,1708.62C2055.19,1708.62 2061.16,1709.44 2066.07,1711.09C2070.97,1712.74 2075.1,1715.18 2078.46,1718.41C2081.81,1721.65 2084.37,1725.65 2086.12,1730.41C2087.87,1735.17 2088.74,1740.68 2088.74,1746.95ZM2072.14,1747.5C2072.14,1743.75 2071.7,1740.27 2070.83,1737.06C2069.95,1733.85 2068.55,1731.06 2066.62,1728.7C2064.68,1726.34 2062.2,1724.5 2059.17,1723.17C2056.14,1721.85 2052.16,1721.19 2047.24,1721.19L2039.12,1721.19L2039.12,1774.9L2047.48,1774.9C2051.88,1774.9 2055.58,1774.33 2058.59,1773.19C2061.6,1772.05 2064.11,1770.33 2066.13,1768.04C2068.14,1765.74 2069.65,1762.88 2070.64,1759.46C2071.64,1756.04 2072.14,1752.05 2072.14,1747.5Z" style="fill:none;fill-rule:nonzero;"/>
                <path d="M2117.92,1785.4C2117.92,1785.81 2117.79,1786.17 2117.52,1786.5C2117.26,1786.82 2116.82,1787.09 2116.21,1787.29C2115.6,1787.5 2114.79,1787.66 2113.77,1787.78C2112.75,1787.9 2111.45,1787.96 2109.86,1787.96C2108.32,1787.96 2107.03,1787.9 2105.99,1787.78C2104.95,1787.66 2104.13,1787.5 2103.52,1787.29C2102.91,1787.09 2102.47,1786.82 2102.2,1786.5C2101.94,1786.17 2101.81,1785.81 2101.81,1785.4L2101.81,1710.81C2101.81,1710.41 2101.94,1710.04 2102.2,1709.72C2102.47,1709.39 2102.92,1709.13 2103.55,1708.92C2104.18,1708.72 2105,1708.56 2106.02,1708.43C2107.04,1708.31 2108.32,1708.25 2109.86,1708.25C2111.45,1708.25 2112.75,1708.31 2113.77,1708.43C2114.79,1708.56 2115.6,1708.72 2116.21,1708.92C2116.82,1709.13 2117.26,1709.39 2117.52,1709.72C2117.79,1710.04 2117.92,1710.41 2117.92,1710.81L2117.92,1785.4Z" style="fill:none;fill-rule:nonzero;"/>
                <path d="M2174.32,1784.79C2174.12,1785.48 2173.85,1786.04 2173.53,1786.47C2173.2,1786.89 2172.67,1787.22 2171.94,1787.44C2171.21,1787.67 2170.21,1787.81 2168.95,1787.87C2167.69,1787.93 2166.04,1787.96 2164.01,1787.96C2162.38,1787.96 2160.99,1787.95 2159.83,1787.93C2158.67,1787.91 2157.68,1787.86 2156.87,1787.78C2156.05,1787.7 2155.39,1787.58 2154.88,1787.41C2154.37,1787.25 2153.95,1787.05 2153.6,1786.8C2153.25,1786.56 2152.99,1786.26 2152.81,1785.92C2152.62,1785.57 2152.45,1785.13 2152.29,1784.61L2128.79,1714.6C2128.3,1713.13 2128.01,1711.97 2127.9,1711.12C2127.8,1710.27 2128.01,1709.62 2128.51,1709.2C2129.02,1708.77 2129.89,1708.51 2131.11,1708.4C2132.33,1708.3 2134.04,1708.25 2136.24,1708.25C2138.11,1708.25 2139.57,1708.29 2140.63,1708.37C2141.69,1708.45 2142.5,1708.6 2143.07,1708.8C2143.64,1709 2144.04,1709.31 2144.26,1709.72C2144.49,1710.12 2144.7,1710.63 2144.9,1711.24L2164.13,1772.15L2164.19,1772.15L2183.05,1711.55C2183.21,1710.86 2183.42,1710.3 2183.66,1709.87C2183.9,1709.44 2184.32,1709.11 2184.91,1708.86C2185.5,1708.62 2186.35,1708.45 2187.44,1708.37C2188.54,1708.29 2190.05,1708.25 2191.96,1708.25C2193.83,1708.25 2195.29,1708.31 2196.33,1708.43C2197.36,1708.56 2198.08,1708.85 2198.46,1709.32C2198.85,1709.79 2198.97,1710.45 2198.83,1711.3C2198.68,1712.16 2198.37,1713.3 2197.88,1714.72L2174.32,1784.79Z" style="fill:none;fill-rule:nonzero;"/>
                <path d="M2255.62,1781.31C2255.62,1782.49 2255.58,1783.48 2255.47,1784.27C2255.37,1785.06 2255.22,1785.7 2255.01,1786.19C2254.81,1786.68 2254.56,1787.04 2254.25,1787.26C2253.95,1787.49 2253.61,1787.6 2253.24,1787.6L2213.57,1787.6C2212.23,1787.6 2211.1,1787.2 2210.18,1786.41C2209.27,1785.61 2208.81,1784.32 2208.81,1782.53L2208.81,1713.68C2208.81,1711.89 2209.27,1710.6 2210.18,1709.81C2211.1,1709.01 2212.23,1708.62 2213.57,1708.62L2253,1708.62C2253.37,1708.62 2253.69,1708.72 2253.98,1708.92C2254.26,1709.13 2254.51,1709.48 2254.71,1709.99C2254.91,1710.5 2255.07,1711.15 2255.17,1711.94C2255.27,1712.74 2255.32,1713.74 2255.32,1714.97C2255.32,1716.1 2255.27,1717.07 2255.17,1717.86C2255.07,1718.66 2254.91,1719.3 2254.71,1719.79C2254.51,1720.28 2254.26,1720.63 2253.98,1720.86C2253.69,1721.08 2253.37,1721.19 2253,1721.19L2224.8,1721.19L2224.8,1740.48L2248.67,1740.48C2249.03,1740.48 2249.37,1740.59 2249.67,1740.81C2249.98,1741.04 2250.23,1741.38 2250.44,1741.85C2250.64,1742.32 2250.79,1742.95 2250.89,1743.74C2251,1744.54 2251.05,1745.5 2251.05,1746.64C2251.05,1747.82 2251,1748.8 2250.89,1749.57C2250.79,1750.35 2250.64,1750.97 2250.44,1751.43C2250.23,1751.9 2249.98,1752.24 2249.67,1752.44C2249.37,1752.64 2249.03,1752.75 2248.67,1752.75L2224.8,1752.75L2224.8,1775.02L2253.24,1775.02C2253.61,1775.02 2253.95,1775.13 2254.25,1775.36C2254.56,1775.58 2254.81,1775.94 2255.01,1776.43C2255.22,1776.92 2255.37,1777.56 2255.47,1778.35C2255.58,1779.14 2255.62,1780.13 2255.62,1781.31Z" style="fill:none;fill-rule:nonzero;"/>
            </g>
            <g transform="matrix(1.1453,0,0,2.84558,3532.44,-3689.46)">
                <path d="M1395.23,1666.09C1416.67,1673.76 1428.96,1684.46 1434.19,1698.84C1436.75,1705.87 1438.34,1713.39 1438.35,1721.22C1438.37,1733.79 1435.07,1746.71 1432.17,1759.72C1430.35,1770.66 1437.77,1781.02 1448.72,1782.83C1459.66,1784.65 1470.02,1777.23 1471.83,1766.28C1474.04,1747.4 1474.59,1728.74 1473.36,1711.17C1472.37,1696.96 1470.22,1683.41 1464.2,1670.68C1455.61,1652.55 1439.59,1636.8 1413.16,1623.91C1401.52,1618.96 1388.05,1624.39 1383.1,1636.03C1378.15,1647.67 1383.59,1661.14 1395.23,1666.09Z" style="fill:#fff;"/>
            </g>
            <g transform="matrix(1.1453,0,0,2.84558,3716.83,-3567.1)">
                <path d="M1393.9,1665.48C1407.92,1671.36 1412.86,1680.67 1412.06,1691.48C1411.59,1697.93 1410.33,1704.63 1407.93,1710.87C1403.35,1722.75 1396.17,1733.19 1391.63,1741.84C1387.12,1751.98 1391.7,1763.87 1401.84,1768.37C1411.98,1772.88 1423.87,1768.3 1428.37,1758.16C1432.79,1746.51 1438.69,1731.02 1443.78,1715.61C1447.69,1703.79 1451.09,1692.08 1451.06,1680.47C1451,1659.39 1440.95,1639.9 1414.49,1624.53C1403.18,1618.84 1389.4,1623.41 1383.72,1634.71C1378.04,1646.01 1382.6,1659.8 1393.9,1665.48Z" style="fill:#fff;"/>
            </g>
            <g transform="matrix(1.1453,0,0,2.84558,3532.44,-3689.46)">
                <path d="M1134.78,1671.95C1134.66,1673.72 1134.41,1675.51 1133.82,1677.13C1129.71,1688.5 1123.02,1700.42 1118.71,1708.66C1114.11,1718.75 1118.56,1730.69 1128.66,1735.29C1138.75,1739.89 1150.69,1735.44 1155.29,1725.34C1161.54,1709.86 1171.42,1683.27 1172.6,1666.79C1173.64,1652.35 1168.36,1642.54 1160.11,1637.39C1153.43,1632.82 1138.21,1631.55 1119.66,1635.01C1099.05,1638.87 1072.88,1648.14 1056.64,1653.66C1044.86,1658.28 1039.05,1671.59 1043.66,1683.36C1048.28,1695.14 1061.59,1700.95 1073.36,1696.34C1084.65,1691.38 1101.36,1684.21 1116.91,1678.38C1123.36,1675.97 1129.45,1673.55 1134.78,1671.95Z" style="fill:#fff;"/>
            </g>
            <g transform="matrix(1.1453,0,0,2.84558,3529,-3702.26)">
                <path d="M857.417,1952.94C862.435,1939.07 872.843,1909.21 913.338,1889.57C935.006,1879.07 964.501,1871.29 1004.99,1869.43C1035.53,1868.25 1077.8,1869.39 1120.63,1873.56C1138.18,1875.27 1155.77,1877.74 1172.73,1880.25C1229.45,1888.67 1278.88,1898.44 1294.76,1900.38C1303.81,1901.07 1311.72,1894.28 1312.4,1885.22C1313.09,1876.17 1306.3,1868.27 1297.24,1867.58C1282.58,1867.16 1238.85,1863.77 1187.48,1859.73C1172.14,1858.53 1156.16,1857.3 1140.08,1855.86C1125.99,1854.59 1111.83,1853.16 1097.98,1851.76C1075.49,1849.49 1053.84,1847.19 1034.49,1845.9C1023.72,1845.18 1013.68,1844.69 1004.61,1844.54C945.974,1843.64 907.152,1855.77 880.779,1871.09C842.279,1893.46 829.26,1923.78 822.583,1939.06C818.751,1948.67 823.444,1959.58 833.056,1963.42C842.669,1967.25 853.584,1962.56 857.417,1952.94Z" style="fill:#fff;"/>
            </g>
            <g transform="matrix(1.1453,0,0,2.84558,3530.15,-3680.92)">
                <path d="M1240.18,1802.37C1271.84,1792.54 1300.68,1784.86 1321.7,1793.27C1324.17,1794.25 1326.5,1795.52 1328.57,1797.12C1331.57,1799.43 1333.88,1802.5 1335.88,1805.91C1340.28,1813.37 1340.98,1822.99 1340.68,1835.05C1341.81,1844.06 1350.05,1850.45 1359.05,1849.32C1368.06,1848.19 1374.45,1839.95 1373.32,1830.95C1367.7,1810.52 1359.23,1797.13 1348.04,1787.48C1342.49,1782.69 1336.58,1778.75 1330,1775.4C1305.92,1763.15 1271.95,1761.47 1232.62,1765.63C1222.48,1767.72 1215.95,1777.65 1218.04,1787.78C1220.12,1797.92 1230.05,1804.45 1240.18,1802.37Z" style="fill:#fff;"/>
            </g>
            <g transform="matrix(1.1453,0,0,2.84558,3532.44,-3689.46)">
                <path d="M1679.23,1736.77C1674.16,1743.43 1668.58,1750.41 1663.84,1758.29C1660.95,1763.11 1658.82,1768.25 1656.04,1773.23C1651.72,1780.98 1647,1788.44 1644.04,1797.04C1641.85,1805.85 1647.22,1814.78 1656.04,1816.96C1664.85,1819.15 1673.78,1813.78 1675.96,1804.97C1676.49,1801 1676.93,1797.09 1678.4,1793.45C1679.44,1790.87 1680.69,1788.35 1682.29,1786.09C1685.53,1781.48 1690.02,1778.14 1693.96,1774.31C1698.33,1770.06 1702.62,1766.02 1706.77,1762.23C1713.79,1754.63 1713.33,1742.76 1705.73,1735.73C1698.13,1728.71 1686.26,1729.17 1679.23,1736.77Z" style="fill:#fff;"/>
            </g>
            <g transform="matrix(1.1453,0,0,2.84558,3532.44,-3689.46)">
                <path d="M1792.66,1869.86C1787.75,1884.06 1773.83,1905.99 1753.25,1924.03C1736.47,1938.72 1715.75,1951.17 1691.99,1954.83C1682.27,1955.95 1672.85,1957.09 1663.71,1957.77C1647.59,1958.96 1632.55,1960.2 1618.35,1964.83C1602.04,1970.14 1587.36,1979.72 1573.42,1996.72C1568.3,2004.21 1570.22,2014.46 1577.72,2019.58C1585.21,2024.7 1595.46,2022.78 1600.58,2015.28C1610.36,1997.98 1622.45,1988.54 1637.22,1983.43C1645.75,1980.47 1654.82,1978.47 1664.42,1977.33C1673.9,1976.21 1683.81,1976.03 1694.01,1975.17C1722.74,1973.89 1749.02,1961.88 1770.93,1946.64C1799.16,1927 1819.15,1901.16 1827.34,1884.14C1831.28,1874.57 1826.71,1863.6 1817.14,1859.66C1807.57,1855.72 1796.6,1860.29 1792.66,1869.86Z" style="fill:#fff;"/>
            </g>
            <g transform="matrix(1.19743,0,0,2.97511,3460.17,-4105.32)">
                <path d="M1331.11,1588.84C1159.45,1588.84 1003.94,1658.52 891.343,1771.12C778.746,1883.72 709.066,2039.23 709.066,2210.89C709.066,2382.55 778.746,2538.06 891.343,2650.66C1003.94,2763.25 1159.45,2832.93 1331.11,2832.93C1502.77,2832.93 1658.29,2763.25 1770.88,2650.66C1883.48,2538.06 1953.16,2382.55 1953.16,2210.89C1953.16,2039.23 1883.48,1883.72 1770.88,1771.12C1658.29,1658.52 1502.77,1588.84 1331.11,1588.84ZM1331.11,1624.71C1492.87,1624.71 1639.42,1690.38 1745.52,1796.48C1851.62,1902.58 1917.29,2049.13 1917.29,2210.89C1917.29,2372.65 1851.62,2519.19 1745.52,2625.3C1639.42,2731.4 1492.87,2797.07 1331.11,2797.07C1169.35,2797.07 1022.81,2731.4 916.705,2625.3C810.601,2519.19 744.934,2372.65 744.934,2210.89C744.934,2049.13 810.601,1902.58 916.705,1796.48C1022.81,1690.38 1169.35,1624.71 1331.11,1624.71Z" style="fill:#0d28f2;"/>
            </g>
            <g transform="matrix(3.24394,0,0,7.88871,3723.33,-386.21)">
                <rect x="102.442" y="48.957" width="1092.01" height="628.827" style="fill:none;"/>
            </g>
        </g>
    </g>
</svg>
